<?xml version="1.0" encoding="UTF-8"?>
<svg version="1.1" xmlns="http://www.w3.org/2000/svg" width="784" height="1168">
<path d="M0 0 C1.40521021 1.19741572 2.8011772 2.40576695 4.1875 3.625 C4.92355469 4.19605469 5.65960938 4.76710938 6.41796875 5.35546875 C21.3891083 17.44060549 28.22072489 37.62982616 36.1875 54.625 C36.81664194 55.96521145 37.44587366 57.30538075 38.07519531 58.64550781 C39.35389896 61.36903211 40.63255635 64.0925781 41.91113281 66.81616211 C42.23408325 67.50402802 42.55703369 68.19189392 42.88977051 68.90060425 C43.54829622 70.30383678 44.20641593 71.70725991 44.86413574 73.11087036 C51.25551195 86.74696569 57.83225468 100.28935627 64.44726562 113.81811523 C65.23831754 115.43601741 66.02933383 117.05393701 66.8203125 118.671875 C67.20137146 119.45127945 67.58243042 120.2306839 67.97503662 121.03370667 C71.59225182 128.43963191 75.14618453 135.87480314 78.68530273 143.31835938 C81.08250339 148.3496028 83.53944074 153.34337166 86.0625 158.3125 C89.61106407 165.31622077 92.90081818 172.43279184 96.1875 179.5625 C101.1138277 190.24492919 106.16477287 200.85998891 111.3125 211.4375 C111.65481659 212.14089508 111.99713318 212.84429016 112.349823 213.56900024 C113.70102097 216.34490334 115.05233989 219.12074743 116.40409851 221.89637756 C119.64988162 228.56552633 122.84772221 235.25720005 126.0378418 241.953125 C128.59610769 247.31592732 131.17503237 252.66825495 133.7734375 258.01171875 C140.31261238 271.46449527 146.80042385 284.92687789 152.98022461 298.55004883 C155.85842814 304.86559229 158.88979758 311.08723874 162.00881958 317.28598022 C166.08126043 325.38311057 170.04003476 333.53492789 174 341.6875 C174.39445312 342.49880371 174.78890625 343.31010742 175.1953125 344.14599609 C180.13621312 354.30871143 185.05493563 364.4811757 189.90527344 374.6875 C192.82746478 380.82209267 195.79822302 386.93191311 198.78515625 393.03515625 C199.61068299 394.72395545 200.43620378 396.41275755 201.26171875 398.1015625 C202.89430179 401.44084978 204.53182126 404.77765808 206.171875 408.11328125 C206.92856149 409.66007013 207.68507936 411.20694151 208.44140625 412.75390625 C208.78986099 413.45918961 209.13831573 414.16447296 209.49732971 414.89112854 C211.37130145 418.73521556 212.93457076 422.52192633 214.1875 426.625 C203.73172407 424.1913995 193.4646251 421.13087615 183.16970825 418.10168457 C177.81908238 416.52745484 172.46628451 414.96065493 167.11328125 413.39453125 C166.02661667 413.07652557 164.93995209 412.7585199 163.82035828 412.43087769 C154.18094304 409.61429479 144.52468548 406.8588766 134.86383057 404.11691284 C120.45831931 400.02803504 106.09512389 395.83375692 91.78515625 391.421875 C83.9409017 389.01280806 76.06874714 386.73601698 68.16015625 384.546875 C66.24868232 384.01437889 64.33722398 383.48182683 62.42578125 382.94921875 C58.7282121 381.91976393 55.02602964 380.90982238 51.3203125 379.91015625 C36.66006919 375.88054329 26.05530871 371.3294181 18.04833984 357.68359375 C9.93297554 343.25332664 2.21995812 328.04547108 -3.8125 312.625 C4.87173657 314.11324684 13.25176901 316.56834424 21.6875 319.0625 C23.05066917 319.46197122 24.41394991 319.86106187 25.77734375 320.25976562 C27.11202094 320.65089917 28.44665698 321.04217311 29.78125 321.43359375 C30.42661209 321.62274857 31.07197418 321.81190338 31.7368927 322.00679016 C34.57064215 322.8407334 37.39682998 323.69111754 40.21362305 324.58081055 C41.08543213 324.85578369 41.95724121 325.13075684 42.85546875 325.4140625 C43.58789795 325.65205566 44.32032715 325.89004883 45.07495117 326.13525391 C50.11414388 327.3034754 54.53807293 326.48557064 59.0625 324.125 C62.11628315 320.53231394 63.52170211 317.29085887 64.1875 312.625 C62.97811501 305.5963303 59.735727 299.04428215 56.625 292.6875 C56.18881348 291.78362549 55.75262695 290.87975098 55.30322266 289.94848633 C51.98817486 283.13237246 48.52532758 276.39825177 44.93920898 269.72094727 C41.31734438 262.96745968 37.90999703 256.11013901 34.4956665 249.25039673 C31.85738266 243.95554951 29.2088345 238.66582669 26.5625 233.375 C25.34887488 230.94795839 24.13537597 228.52085368 22.921875 226.09375 C22.30143459 224.85286344 21.68099187 223.61197803 21.06054688 222.37109375 C17.31445306 214.87890613 17.31445306 214.87890613 16.38139057 213.01278019 C15.7650376 211.78007488 15.14868362 210.54737008 14.53232861 209.31466579 C13.03074996 206.31151946 11.52919223 203.30836267 10.02766418 200.30519104 C7.63689608 195.52350634 5.24611582 190.7418281 2.85424805 185.96069336 C-0.16331943 179.92841651 -3.17742497 173.89445878 -6.18380737 167.8565979 C-7.73206725 164.74769787 -9.28183092 161.63954875 -10.83178711 158.53149414 C-11.61666774 156.95664797 -12.40083682 155.38144699 -13.18432617 153.8059082 C-18.31336215 143.46267791 -18.31336215 143.46267791 -23.62890625 133.21484375 C-23.96994385 132.57281006 -24.31098145 131.93077637 -24.66235352 131.26928711 C-27.43937188 127.29917065 -31.47670875 125.27836818 -36.046875 124 C-41.55189134 123.08882488 -45.99706641 123.8064419 -50.8125 126.625 C-56.12223731 131.45550703 -59.10636234 137.60491932 -62.1484375 143.9921875 C-62.87300644 145.48167404 -62.87300644 145.48167404 -63.61221313 147.00125122 C-65.14716369 150.16283877 -66.66742304 153.33123907 -68.1875 156.5 C-69.19958093 158.58899729 -70.21259415 160.67754318 -71.2265625 162.765625 C-75.61904491 171.82796698 -79.96091171 180.91244854 -84.2265625 190.03515625 C-86.94064741 195.83640126 -89.76964106 201.5515454 -92.8125 207.1875 C-96.57188894 214.24412906 -100.21861178 221.34456554 -103.76953125 228.50805664 C-105.66905053 232.33883605 -107.57868799 236.16446977 -109.4921875 239.98828125 C-110.1964565 241.3962379 -110.90072064 242.80419697 -111.60498047 244.2121582 C-111.96734802 244.93650055 -112.32971558 245.6608429 -112.70306396 246.40713501 C-114.55257992 250.10448804 -116.40124614 253.80226587 -118.25 257.5 C-119.00780842 259.01562704 -119.76562094 260.53125203 -120.5234375 262.046875 C-120.90081055 262.80162109 -121.27818359 263.55636719 -121.66699219 264.33398438 C-139.8125 300.625 -139.8125 300.625 -141.51196289 303.91796875 C-143.55034553 308.16080461 -143.4863818 312.02014106 -142.8125 316.625 C-140.62795725 321.0749945 -138.35396346 323.61830685 -133.8125 325.625 C-127.7167224 327.04709187 -123.48806272 326.06383839 -117.6875 324.25 C-116.80747314 323.98687012 -115.92744629 323.72374023 -115.02075195 323.45263672 C-111.94595709 322.52690901 -108.87923784 321.57707266 -105.8125 320.625 C-103.87763857 320.02988691 -101.94277404 319.43478386 -100.0078125 318.83999634 C-92.26843008 316.45921467 -84.53819078 314.04985776 -76.8125 311.625 C-76.4825 312.285 -76.1525 312.945 -75.8125 313.625 C-76.77598177 315.90817028 -77.79940091 318.06037335 -78.93359375 320.2578125 C-79.27117203 320.92730927 -79.60875031 321.59680603 -79.95655823 322.28659058 C-81.04694019 324.44491911 -82.14820124 326.59748084 -83.25 328.75 C-83.95842006 330.14676147 -84.66611021 331.54389341 -85.37304688 332.94140625 C-86.79364132 335.74839204 -88.21997305 338.55236657 -89.64916992 341.35498047 C-91.12488575 344.25596744 -92.57879565 347.16658757 -94.0168457 350.08642578 C-94.3735585 350.80869354 -94.7302713 351.5309613 -95.09779358 352.27511597 C-95.77272639 353.6442984 -96.44444246 355.0150732 -97.11228943 356.38772583 C-102.21620198 366.72415399 -108.99222317 372.36861385 -119.83651733 376.37225342 C-125.42197875 378.25485542 -131.08633317 379.87200409 -136.75 381.5 C-138.54481747 382.02598711 -140.33932965 382.55301704 -142.13354492 383.08105469 C-147.35486827 384.61320091 -152.58267798 386.12215928 -157.8125 387.625 C-159.19890333 388.024379 -160.58529733 388.4237904 -161.97167969 388.82324219 C-167.74849977 390.48432313 -173.52909597 392.13153845 -179.3125 393.76953125 C-185.93189119 395.64985951 -192.52984356 397.59908949 -199.125 399.5625 C-208.67885061 402.40507144 -218.24000051 405.22083347 -227.8125 408 C-228.76314835 408.27605072 -228.76314835 408.27605072 -229.73300171 408.55767822 C-237.51714704 410.81646765 -245.30684617 413.05530962 -253.1015625 415.27734375 C-253.88142517 415.49972717 -254.66128784 415.7221106 -255.46478271 415.95123291 C-259.24280841 417.02818939 -263.02134343 418.10330268 -266.80078125 419.17529297 C-268.19275028 419.57114158 -269.58467833 419.96713435 -270.9765625 420.36328125 C-271.64157776 420.55186707 -272.30659302 420.74045288 -272.99176025 420.93475342 C-276.22717746 421.85877249 -279.44679174 422.81505035 -282.65136719 423.84130859 C-283.82602539 424.21723145 -285.00068359 424.5931543 -286.2109375 424.98046875 C-287.24653809 425.32102295 -288.28213867 425.66157715 -289.34912109 426.01245117 C-291.8125 426.625 -291.8125 426.625 -293.8125 425.625 C-293.50135254 424.97764893 -293.19020508 424.33029785 -292.86962891 423.66333008 C-291.39187049 420.58823682 -289.91462017 417.51289989 -288.4375 414.4375 C-287.89383789 413.30578369 -287.35017578 412.17406738 -286.79003906 411.00805664 C-283.77869027 404.73529229 -280.77965375 398.45699907 -277.79882812 392.16967773 C-274.57517912 385.37162328 -271.32667482 378.59223624 -267.9375 371.875 C-263.52064941 363.11997046 -259.30396661 354.27046255 -255.0703125 345.42578125 C-251.74820854 338.48549458 -248.40812507 331.5539743 -245.0625 324.625 C-244.77496857 324.02940277 -244.48743713 323.43380554 -244.19119263 322.82015991 C-239.69120821 313.4998691 -235.17563083 304.18718707 -230.6567688 294.8760376 C-225.3489534 283.93888276 -220.05828503 272.9943307 -214.82348633 262.02197266 C-211.33695853 254.71469084 -207.82777624 247.41849205 -204.3125 240.125 C-200.33968243 231.88185387 -196.37891575 223.63320443 -192.4375 215.375 C-188.41495689 206.9490813 -184.35797912 198.54023713 -180.28735352 190.13748169 C-167.37761955 163.7139073 -167.37761955 163.7139073 -155.15478516 136.9699707 C-152.66779177 131.3404348 -149.94710819 125.83832889 -147.18225098 120.34162903 C-142.42745274 110.88678861 -137.77664848 101.38091105 -133.125 91.875 C-132.64205475 90.88832336 -132.1591095 89.90164673 -131.66152954 88.8850708 C-125.83493156 76.97178573 -120.05987767 65.04028186 -114.5 53 C-113.99154541 51.90010742 -113.48309082 50.80021484 -112.95922852 49.66699219 C-110.73134155 44.83277859 -108.52589327 39.98958522 -106.34765625 35.1328125 C-98.03360258 16.7797398 -86.41914836 0.38023899 -66.81445312 -7.14160156 C-44.55003377 -14.95783389 -19.60761728 -14.90995898 0 0 Z M-62.8125 0.625 C-63.67875 0.975625 -64.545 1.32625 -65.4375 1.6875 C-80.88235282 8.63768377 -90.78569775 21.24365793 -97.625 36.3125 C-98.66524473 38.54042055 -99.70561189 40.76828394 -100.74609375 42.99609375 C-101.26026855 44.10968262 -101.77444336 45.22327148 -102.30419922 46.37060547 C-104.55476225 51.22654674 -106.87108006 56.05022695 -109.1875 60.875 C-109.63085693 61.803125 -110.07421387 62.73125 -110.53100586 63.6875 C-113.05692157 68.97519715 -115.59909834 74.25467801 -118.15625 79.52734375 C-119.33364965 81.95557595 -120.51075416 84.38395089 -121.6875 86.8125 C-121.98100342 87.41818817 -122.27450684 88.02387634 -122.5769043 88.6479187 C-127.04088328 97.8687296 -131.3946849 107.13587814 -135.6875 116.4375 C-139.24046381 124.13392758 -142.82188188 131.79882147 -146.66137695 139.35644531 C-149.98968879 145.92295378 -153.18055882 152.55508986 -156.375 159.1875 C-156.67168579 159.80335968 -156.96837158 160.41921936 -157.27404785 161.05374146 C-158.50298553 163.60489991 -159.73183073 166.15610279 -160.96032715 168.70747375 C-163.18915718 173.33511774 -165.4246429 177.95950323 -167.6640625 182.58203125 C-167.98156464 183.23741379 -168.29906677 183.89279633 -168.62619019 184.56803894 C-169.26545456 185.88753627 -169.90472659 187.2070299 -170.54400635 188.52651978 C-176.11128149 200.01917704 -181.64944742 211.52526397 -187.1484375 223.05078125 C-188.97875756 226.88551176 -190.81814726 230.71572122 -192.6640625 234.54296875 C-196.95531785 243.4452759 -201.23265687 252.3525104 -205.40234375 261.3125 C-205.70723221 261.96754013 -206.01212067 262.62258026 -206.32624817 263.29747009 C-207.80205906 266.47061363 -209.27429257 269.64535859 -210.74145508 272.82250977 C-213.96132613 279.76608661 -217.28826867 286.63869354 -220.7283783 293.47509766 C-224.60213231 301.17622589 -228.3644242 308.93063854 -232.125 316.6875 C-232.88109597 318.24528361 -233.6371996 319.8030635 -234.39331055 321.36083984 C-238.33082476 329.47783045 -242.24762207 337.6040778 -246.125 345.75 C-251.38855828 356.80473362 -256.75740132 367.8080328 -262.125 378.8125 C-262.77718002 380.15021454 -262.77718002 380.15021454 -263.4425354 381.51495361 C-264.7070183 384.10799986 -265.97243413 386.70058823 -267.23828125 389.29296875 C-267.63763382 390.1115033 -268.03698639 390.93003784 -268.44844055 391.77337646 C-271.18861268 397.37931418 -273.98410274 402.95347574 -276.84057617 408.5012207 C-277.95121091 410.53883295 -277.95121091 410.53883295 -277.8125 412.625 C-272.42904536 412.05572886 -267.38381834 411.11382838 -262.18359375 409.5859375 C-261.48030441 409.38435028 -260.77701508 409.18276306 -260.05241394 408.97506714 C-257.78315739 408.32272393 -255.51656678 407.66162218 -253.25 407 C-251.67050886 406.54360359 -250.09091813 406.0875517 -248.51123047 405.63183594 C-238.86642808 402.84177751 -229.24794911 399.97047689 -219.65161133 397.01782227 C-213.93079919 395.25943285 -208.1962693 393.567098 -202.4375 391.9375 C-190.10360258 388.44507113 -177.79849806 384.85334414 -165.50219727 381.23095703 C-164.61822769 380.97057648 -163.73425812 380.71019592 -162.82350159 380.44192505 C-161.0482656 379.91900527 -159.27306811 379.39595475 -157.49790955 378.87277222 C-152.66588886 377.45202124 -147.82807921 376.05607991 -142.97901917 374.69462585 C-140.24066018 373.92403739 -137.50640771 373.13951239 -134.77267456 372.35269165 C-132.94404606 371.83215464 -131.10990892 371.33108976 -129.27563477 370.83081055 C-118.96919686 367.84392484 -110.82433188 363.51170848 -105.16699219 354.12792969 C-102.6090008 349.4010862 -100.22584623 344.61273574 -97.9375 339.75 C-97.43992187 338.71875 -96.94234375 337.6875 -96.4296875 336.625 C-93.71931194 331.34969943 -93.71931194 331.34969943 -92.8125 325.625 C-93.36599121 325.79104736 -93.91948242 325.95709473 -94.48974609 326.12817383 C-107.4609375 330.01953125 -107.4609375 330.01953125 -110.1340332 330.81665039 C-111.93042159 331.35879258 -113.72326008 331.9128295 -115.51245117 332.47827148 C-124.34369676 335.24128039 -132.25952243 336.27946178 -140.8046875 331.9609375 C-145.60975395 328.76379212 -149.30675919 324.23730666 -150.8125 318.625 C-153.05788852 307.39805739 -149.00085589 299.35923359 -143.6875 289.5625 C-142.49398895 287.31422803 -141.3012776 285.06553134 -140.109375 282.81640625 C-139.53509766 281.7402002 -138.96082031 280.66399414 -138.36914062 279.55517578 C-133.78959445 270.93476906 -129.54143371 262.14980949 -125.30859375 253.35546875 C-123.99762444 250.63270235 -122.68638889 247.91006433 -121.375 245.1875 C-121.0457251 244.50351135 -120.7164502 243.81952271 -120.37719727 243.11480713 C-116.37043021 234.79941019 -112.28176403 226.54986152 -107.88525391 218.43212891 C-104.74098182 212.5923405 -101.91602763 206.61822833 -99.10253906 200.61352539 C-96.85397387 195.81661871 -94.56692308 191.04588418 -92.1875 186.3125 C-91.8786084 185.69793945 -91.5697168 185.08337891 -91.25146484 184.45019531 C-90.54262512 183.04208093 -89.83327286 181.63422449 -89.12353516 180.2265625 C-86.53330739 175.0866245 -83.94988594 169.94328982 -81.3706665 164.79782104 C-80.70783468 163.47615966 -80.04438416 162.15480838 -79.38031006 160.83377075 C-75.77468552 153.65930468 -72.23874718 146.46691311 -68.91162109 139.15771484 C-64.20423122 128.8457915 -59.87747836 120.88261124 -48.8125 116.625 C-41.30141654 114.12130551 -32.84810053 115.12722516 -25.8125 118.625 C-14.78222154 125.28393607 -10.00342795 141.09381346 -4.4362793 152.23217773 C-3.60959897 153.88254062 -2.78275623 155.53282217 -1.95576477 157.18302917 C0.27308292 161.63195132 2.49938051 166.08214468 4.72497582 170.53269458 C6.11657427 173.31517809 7.50874279 176.0973756 8.90111351 178.87947273 C13.76071864 188.58945751 18.61827737 198.30046277 23.47387695 208.01245117 C27.99870348 217.06270692 32.52800492 226.11071336 37.05937129 235.15769619 C40.95531979 242.93653386 44.84819569 250.71690394 48.73866528 258.49848324 C51.06015411 263.14171599 53.38288447 267.7843174 55.70870399 272.42538261 C57.89148036 276.78127946 60.07043468 281.13906655 62.24643135 285.49835396 C63.04605675 287.09865315 63.84705419 288.69826759 64.64950943 290.29714966 C65.74292631 292.47629788 66.83140498 294.6578428 67.9186554 296.84007263 C68.23848949 297.47459726 68.55832359 298.10912189 68.88784963 298.76287454 C72.47958293 306.0031231 73.32685363 312.52112947 70.9375 320.3125 C68.52961049 326.75194764 65.02477852 330.50294351 58.89208984 333.59472656 C49.42662897 337.20045367 39.33228915 333.60940748 30.1875 330.625 C27.81396869 329.87036491 25.43902346 329.12015853 23.0625 328.375 C21.51175781 327.87226562 21.51175781 327.87226562 19.9296875 327.359375 C17.01666311 326.45253985 17.01666311 326.45253985 13.1875 326.625 C15.18921572 332.98763834 18.07890385 338.73819497 21.0625 344.6875 C21.59230469 345.76322266 22.12210937 346.83894531 22.66796875 347.94726562 C23.18746094 348.98689453 23.70695312 350.02652344 24.2421875 351.09765625 C24.71124512 352.03875244 25.18030273 352.97984863 25.66357422 353.94946289 C31.96014277 365.0042682 42.46574211 368.46654922 54.125 371.875 C55.9978064 372.43960938 55.9978064 372.43960938 57.90844727 373.015625 C69.26314717 376.42751496 80.67332945 379.65853395 92.08129883 382.88696289 C101.68627821 385.60701247 111.25819233 388.41969549 120.8125 391.3125 C130.90187646 394.3666317 141.0178975 397.28685328 151.17871094 400.09350586 C159.26664181 402.3383327 167.29932818 404.74271212 175.31616211 407.22900391 C179.89724903 408.64566053 184.48737178 410.02288523 189.1015625 411.328125 C189.98021973 411.57723633 190.85887695 411.82634766 191.76416016 412.08300781 C194.42422504 412.77050849 194.42422504 412.77050849 198.1875 412.625 C196.94355881 408.66539216 195.49959148 405.02682308 193.60546875 401.3359375 C192.83541504 399.82108765 192.83541504 399.82108765 192.04980469 398.27563477 C191.49711914 397.19467529 190.94443359 396.11371582 190.375 395 C183.82914042 382.06155601 177.70614522 368.95663997 171.64501953 355.78369141 C166.71006595 345.0888121 161.64889126 334.46288329 156.33984375 323.94873047 C153.43385734 318.17223111 150.65102601 312.33986418 147.875 306.5 C144.22801268 298.83210495 140.50629027 291.20877558 136.6875 283.625 C132.02476268 274.35815017 127.51780859 265.02432491 123.0625 255.65625 C121.07705866 251.48243548 119.0757838 247.31670593 117.0625 243.15625 C111.49260039 231.64489947 105.99028384 220.1083188 100.625 208.5 C93.10853318 192.23903346 85.46042717 176.0403763 77.38964844 160.04614258 C73.43709786 152.18374486 69.63859652 144.24601127 65.82177734 136.31713867 C65.20801475 135.04215161 64.59424515 133.76716792 63.98046875 132.4921875 C63.67149658 131.85027969 63.36252441 131.20837189 63.04418945 130.54701233 C60.80752903 125.90349353 58.55708309 121.26681473 56.30078125 116.6328125 C50.22503222 104.14578857 44.22328116 91.64285755 38.53100586 78.97460938 C36.00664259 73.37356331 33.37770609 67.84882881 30.57421875 62.38232422 C28.51224235 58.34024402 26.53762986 54.26501684 24.61665344 50.15376282 C23.32838594 47.39806422 22.02856204 44.64786213 20.72909546 41.89743042 C20.08701994 40.5301656 19.45028647 39.1603766 18.81948853 37.78787231 C10.13023529 18.89863288 -1.92843928 6.60514991 -21.31640625 -1.41015625 C-34.40794415 -5.81497729 -50.24377633 -4.68179444 -62.8125 0.625 Z " fill="#C4C4C4" transform="translate(431.8125,376.375)"/>
</svg>
