<?xml version="1.0" encoding="UTF-8"?>
<svg version="1.1" xmlns="http://www.w3.org/2000/svg" width="1870" height="1871">
<path d="M0 0 C1.20632434 -0.00350607 2.41264868 -0.00701215 3.65552831 -0.01062447 C6.99698572 -0.01831251 10.33822231 -0.01709372 13.67967031 -0.01206893 C17.3176612 -0.00879433 20.95562907 -0.01709145 24.59361255 -0.02388728 C30.96755337 -0.03418452 37.34146382 -0.03703155 43.71541214 -0.03497505 C53.1940122 -0.03192435 62.67257867 -0.04025062 72.1511722 -0.0507243 C90.06589274 -0.07006668 107.98060183 -0.07569262 125.89533158 -0.07683842 C139.73080401 -0.07775753 153.56627196 -0.08187433 167.40174294 -0.08823967 C171.38439238 -0.09003476 175.36704182 -0.09181439 179.34969127 -0.09358943 C180.33979517 -0.09403152 181.32989907 -0.09447362 182.35000612 -0.09492911 C210.20039835 -0.10723773 238.05078902 -0.11513022 265.90118408 -0.11424255 C267.47624592 -0.11419582 267.47624592 -0.11419582 269.08312718 -0.11414814 C274.40515685 -0.11398192 279.72718651 -0.11378384 285.04921617 -0.11357872 C286.10618725 -0.11353883 287.16315833 -0.11349894 288.25215884 -0.11345784 C290.38961246 -0.11337697 292.52706608 -0.11329337 294.6645197 -0.11320706 C327.9168103 -0.11198166 361.16906011 -0.1269926 394.42133904 -0.15435219 C431.78182821 -0.18507931 469.14229058 -0.20228429 506.50279319 -0.20042574 C510.48732877 -0.20027648 514.47186434 -0.20017907 518.45639992 -0.20011711 C519.92803513 -0.20008215 519.92803513 -0.20008215 521.42940035 -0.20004648 C537.2117357 -0.19998496 552.99403561 -0.21275199 568.77636043 -0.22998164 C584.64103566 -0.24694284 600.5056591 -0.24890814 616.3703384 -0.235763 C625.79210032 -0.22837703 635.2137048 -0.23202126 644.63545001 -0.25164768 C650.93455948 -0.26365925 657.23355508 -0.26104354 663.53265936 -0.24670668 C667.11804806 -0.23895357 670.70313241 -0.23736287 674.28849949 -0.25362138 C691.44101851 -0.32637165 706.81907889 -0.14893807 722.26801872 8.13226891 C722.93704216 8.47959068 723.6060656 8.82691246 724.29536247 9.18475914 C729.18602177 11.77874286 733.62418927 14.64499965 737.83051872 18.25726891 C738.46860466 18.75355797 739.1066906 19.24984703 739.76411247 19.76117516 C754.8902739 31.99773849 764.13127408 51.14970817 766.36823839 70.30590618 C767.15819265 78.59150317 766.96610458 86.93012523 766.95356655 95.24469757 C766.9543067 97.19542437 766.95548582 99.14615104 766.95706305 101.09687734 C766.96013034 106.46652813 766.95695837 111.83615997 766.95278492 117.20580935 C766.94934977 123.043979 766.9517217 128.88214674 766.95336241 134.72031677 C766.9554365 144.9552689 766.95382451 155.19021567 766.9497242 165.42516708 C766.94534458 176.40570767 766.94315179 187.38624547 766.9436264 198.36678696 C766.94366944 199.40747144 766.94366944 199.40747144 766.94371335 200.46917986 C766.94386973 204.00687584 766.94406168 207.54457183 766.94426619 211.08226782 C766.94567335 236.68229088 766.94224399 262.28231146 766.93624878 287.88233376 C766.93032594 313.23388366 766.92647361 338.58543251 766.92539597 363.93698311 C766.92536155 364.72436043 766.92532714 365.51173774 766.92529169 366.32297498 C766.92497849 373.5144742 766.9246908 380.70597343 766.92443371 387.89747266 C766.92379432 405.77458084 766.92283501 423.651689 766.92165852 441.52879715 C766.9216052 442.34287319 766.92155188 443.15694923 766.92149695 443.99569424 C766.91887555 483.5939539 766.91256804 523.19221287 766.90595818 562.79047203 C766.90366651 576.53162193 766.90139115 590.27277183 766.89918327 604.01392174 C766.89904632 604.86615145 766.89890937 605.71838116 766.89876828 606.59643601 C766.89242396 646.2159309 766.88869853 685.8354259 766.88564848 725.45492115 C766.88545041 728.02711171 766.88525122 730.59930226 766.8850518 733.17149281 C766.88373202 750.21756232 766.88245737 767.26363184 766.88121294 784.30970136 C766.87873645 818.22702505 766.87599477 852.14434873 766.87307089 886.06167239 C766.87293165 887.67689656 766.8727926 889.29212072 766.87265373 890.90734488 C766.86640081 963.61920141 766.85706291 1036.33105743 766.84638786 1109.04291344 C766.84623796 1110.06416201 766.84623796 1110.06416201 766.84608503 1111.10604187 C766.84108459 1145.15645091 766.83590808 1179.20685992 766.83051872 1213.25726891 C767.58341179 1213.39141197 768.33630486 1213.52555504 769.11201286 1213.66376305 C791.17746406 1218.48110583 812.55551868 1239.29235286 824.54926872 1257.45258141 C838.33134773 1279.65836215 843.31476845 1302.94131678 843.21146965 1328.72650719 C843.21493444 1330.63472383 843.21970448 1332.54293846 843.22565138 1334.45114899 C843.23807821 1339.64750222 843.23202922 1344.84368839 843.22269273 1350.04004192 C843.21586821 1355.66249043 843.22640025 1361.28491142 843.23463249 1366.90735435 C843.24793587 1377.90307447 843.24510725 1388.89873296 843.23639457 1399.89445543 C843.22960504 1408.83508018 843.22870679 1417.77568773 843.23196602 1426.71631432 C843.23242572 1427.99131959 843.23288542 1429.26632487 843.23335905 1430.57996666 C843.23431827 1433.17053716 843.23529091 1435.76110765 843.23627682 1438.35167813 C843.24457746 1461.92282406 843.23598582 1485.4939288 843.22024903 1509.0650678 C843.20601383 1530.55037673 843.20728778 1552.03563231 843.221632 1573.52094078 C843.2377205 1597.6992825 843.24399689 1621.8775863 843.23479521 1646.05593491 C843.23383962 1648.63669776 843.2328965 1651.21746063 843.23196602 1653.7982235 C843.23150319 1655.06783554 843.23104037 1656.33744759 843.23056351 1657.64553273 C843.22797891 1666.57001281 843.23233319 1675.49447389 843.23940468 1684.41895103 C843.24783944 1695.30262924 843.24549805 1706.18624257 843.22956245 1717.06991339 C843.22170632 1722.61735381 843.2185426 1728.16468628 843.2285099 1733.71212578 C843.2375126 1738.79984165 843.23243297 1743.88735048 843.21657725 1748.97504783 C843.21325289 1750.80591815 843.21486996 1752.63680631 843.22220461 1754.46766496 C843.34495439 1787.68122525 832.62085991 1818.00044986 809.18208122 1842.05805016 C805.70223187 1845.47038004 802.00823134 1848.54216773 798.14301872 1851.50726891 C797.56930534 1851.95400963 796.99559196 1852.40075035 796.40449333 1852.86102867 C794.27137835 1854.42901996 792.05962372 1855.82781637 789.83051872 1857.25726891 C788.77660058 1857.99203954 787.72268244 1858.72681016 786.63682738 1859.48384657 C773.93245627 1867.69424208 761.53750073 1867.54701392 746.78176981 1867.40137563 C743.23931286 1867.37659097 739.69717573 1867.40475223 736.15474835 1867.42577729 C729.93550266 1867.45552806 723.71697172 1867.45211274 717.49771713 1867.42664779 C708.18745081 1867.38869627 698.87775202 1867.40299052 689.56746561 1867.4271755 C673.69728469 1867.46688134 657.82736793 1867.46400177 641.95717049 1867.43778419 C625.87898701 1867.41137755 609.80097265 1867.40457147 593.72277451 1867.42158508 C592.7065131 1867.42264716 591.6902517 1867.42370923 590.6431945 1867.42480349 C586.50398753 1867.42919465 582.36478075 1867.43372606 578.22557413 1867.43843505 C539.68879744 1867.48225263 501.15213914 1867.48189612 462.61535263 1867.45336151 C425.47723164 1867.4258871 388.33916548 1867.41353654 351.20103455 1867.42267227 C348.8687761 1867.42322255 346.53651766 1867.42377037 344.20425922 1867.42431573 C334.83192328 1867.42652637 325.45958737 1867.42882346 316.08725149 1867.43123989 C289.88768624 1867.4379366 263.68812102 1867.44154205 237.48855495 1867.44275379 C235.69895152 1867.44283756 235.69895152 1867.44283756 233.87319449 1867.44292303 C195.85635448 1867.44448005 157.83953132 1867.43242033 119.82269764 1867.41094875 C118.58963786 1867.41025407 117.35657808 1867.40955939 116.08615285 1867.40884366 C96.06196649 1867.39752024 76.03778054 1867.38548872 56.01359463 1867.37340372 C-23.40757535 1867.32551911 -102.8286271 1867.320455 -182.24980354 1867.3551693 C-202.26507019 1867.36388015 -222.28033685 1867.37252119 -242.29560375 1867.38062954 C-243.52800769 1867.38113115 -244.76041163 1867.38163275 -246.03016114 1867.38214956 C-284.00821332 1867.39749629 -321.98625573 1867.402874 -359.96431065 1867.39726734 C-361.15649039 1867.39709155 -362.34867013 1867.39691575 -363.57697653 1867.39673463 C-389.74680413 1867.39275666 -415.91663062 1867.38615911 -442.08645697 1867.37721163 C-451.45010622 1867.37401668 -460.81375551 1867.37093792 -470.1774048 1867.36788324 C-472.50684646 1867.36711727 -474.83628812 1867.36634018 -477.16572978 1867.36555191 C-511.98758696 1867.35377991 -546.80940476 1867.35929993 -581.63125899 1867.37649051 C-622.35968825 1867.39657846 -663.08798677 1867.38962974 -703.81639535 1867.3408987 C-707.94197615 1867.33607461 -712.06755707 1867.33137435 -716.19313812 1867.32677078 C-717.2056297 1867.3256288 -718.21812129 1867.32448682 -719.26129443 1867.32331023 C-735.29698777 1867.30593555 -751.3325489 1867.31531743 -767.36823387 1867.33578965 C-783.13380892 1867.35534515 -798.89915309 1867.34632301 -814.66469317 1867.30684091 C-823.90855581 1867.28453649 -833.15179654 1867.2840178 -842.39563504 1867.3157901 C-848.53720624 1867.33470775 -854.67828877 1867.32455028 -860.81979575 1867.29090434 C-864.2999906 1867.27264453 -867.77894501 1867.26653619 -871.25908866 1867.29631883 C-886.43544341 1867.39873246 -898.40857061 1866.98835344 -911.16948128 1858.25726891 C-912.02238749 1857.67668278 -912.02238749 1857.67668278 -912.89252413 1857.08436764 C-939.84285939 1838.58561926 -957.87173153 1812.32920652 -964.16948128 1780.25726891 C-965.00680206 1775.20160236 -965.31418433 1770.28507646 -965.30370235 1765.17131233 C-965.30605458 1764.38214562 -965.30840681 1763.5929789 -965.31083032 1762.77989805 C-965.31748363 1760.13731091 -965.31706321 1757.49477336 -965.3166523 1754.85217857 C-965.31995322 1752.93752062 -965.32367927 1751.02286336 -965.32779378 1749.10820699 C-965.33779612 1743.84756965 -965.34152774 1738.58694373 -965.34418309 1733.32629824 C-965.34809144 1727.65183498 -965.35766947 1721.97738071 -965.36639595 1716.3029232 C-965.38614638 1702.59854756 -965.39622522 1688.8941712 -965.40512374 1675.18978488 C-965.40950937 1668.73190442 -965.4148755 1662.27402477 -965.42011261 1655.81614494 C-965.43712422 1634.34083635 -965.45164205 1612.86552906 -965.45886135 1591.39021492 C-965.4593361 1590.00195096 -965.45981199 1588.61368701 -965.46028901 1587.22542305 C-965.46052539 1586.53699488 -965.46076177 1585.8485667 -965.4610053 1585.13927707 C-965.46220645 1581.65158945 -965.46342192 1578.16390183 -965.46464729 1574.67621422 C-965.46488744 1573.98408215 -965.46512759 1573.29195008 -965.46537502 1572.57884431 C-965.47326157 1550.1565629 -965.49668034 1527.73433449 -965.52920324 1505.31207621 C-965.56355623 1481.58458543 -965.58321651 1457.85713214 -965.58650559 1434.12961507 C-965.58866783 1421.20420407 -965.59737456 1408.27887097 -965.62296677 1395.3534832 C-965.64471743 1384.34298954 -965.65270274 1373.33259269 -965.64299998 1362.32207999 C-965.63846784 1356.70961331 -965.64027824 1351.09734621 -965.65976143 1345.48490715 C-965.67748374 1340.33496879 -965.67632232 1335.18537425 -965.66086414 1330.03543177 C-965.65850175 1328.18403239 -965.66273945 1326.33260862 -965.67469279 1324.48124632 C-965.8490585 1295.6624367 -957.40704901 1268.15216603 -938.16948128 1246.25726891 C-937.50690315 1245.45160484 -936.84432503 1244.64594078 -936.16166878 1243.81586266 C-923.77968605 1229.21791623 -907.43556497 1219.13682691 -889.66948128 1212.38226891 C-888.95961067 1212.10802086 -888.24974007 1211.83377281 -887.51835823 1211.55121422 C-871.94320405 1205.96698123 -856.49619459 1205.86790674 -840.16948128 1206.06976891 C-838.0262616 1206.08485515 -835.88303155 1206.09853652 -833.73979378 1206.11078453 C-828.54942806 1206.14344977 -823.35957291 1206.19501079 -818.16948128 1206.25726891 C-818.16994922 1205.31279657 -818.17041716 1204.36832423 -818.17089928 1203.39523152 C-818.25476296 1033.88614409 -818.25476296 1033.88614409 -818.2965107 894.93938255 C-818.29692905 893.38819398 -818.2973474 891.8370054 -818.29776576 890.28581683 C-818.30653411 857.72483506 -818.31468423 825.16385315 -818.32212031 792.60287104 C-818.32585645 776.24602902 -818.32971137 759.88918702 -818.3336786 743.53234505 C-818.33427635 741.06500138 -818.3348707 738.59765771 -818.33546492 736.13031405 C-818.34464316 698.1437809 -818.35636636 660.15725063 -818.37547493 622.17072105 C-818.37609097 620.9459205 -818.37609097 620.9459205 -818.37671946 619.6963765 C-818.38335645 606.53172017 -818.39020733 593.36706396 -818.3970866 580.20240776 C-818.41690157 542.27685019 -818.4351308 504.35129484 -818.44290066 466.42573261 C-818.44306126 465.64555909 -818.44322187 464.86538558 -818.44338734 464.06157044 C-818.44688491 446.93344248 -818.44956934 429.8053145 -818.45148423 412.6771863 C-818.45226907 405.78504135 -818.45317094 398.89289642 -818.45411301 392.0007515 C-818.45421329 391.24644384 -818.45431357 390.49213619 -818.45441689 389.71497073 C-818.4577043 365.42503184 -818.47051096 341.13510944 -818.4883279 316.8451772 C-818.50623709 292.36992588 -818.51477491 267.89469056 -818.51035324 243.41943252 C-818.50974403 240.03431313 -818.50924187 236.64919374 -818.50880432 233.26407433 C-818.50871468 232.60051631 -818.50862504 231.9369583 -818.50853268 231.25329247 C-818.50732314 220.12490324 -818.51800409 208.99655086 -818.53187391 197.86817171 C-818.54312509 188.17952908 -818.54347114 178.49092557 -818.53497672 168.80228024 C-818.53044868 163.28247744 -818.53063679 157.76278767 -818.54413082 152.242997 C-818.55633018 147.21450803 -818.55453378 142.18621957 -818.5419012 137.15773344 C-818.53977075 135.35652304 -818.54259511 133.5552976 -818.55118701 131.75410642 C-818.66782285 105.6318613 -812.9846629 81.3209686 -795.16948128 61.25726891 C-794.57780159 60.57148766 -793.9861219 59.88570641 -793.37651253 59.17914391 C-782.12939378 46.99676369 -766.63867602 39.64044356 -750.16948128 38.25726891 C-746.29957846 38.12633793 -742.43374992 38.13777459 -738.56198502 38.15491676 C-737.40427937 38.1559693 -736.24657373 38.15702184 -735.0537861 38.15810627 C-731.84411158 38.16200187 -728.63448535 38.17041547 -725.42482608 38.1806812 C-721.93145835 38.19068835 -718.43808309 38.19467889 -714.94470489 38.19936061 C-708.82325727 38.20832457 -702.70182518 38.22083807 -696.58038902 38.23564529 C-686.62101919 38.25962457 -676.66164352 38.27616344 -666.70225716 38.29152489 C-663.21861764 38.29696127 -659.73497818 38.30242863 -656.25133872 38.30789995 C-654.93823337 38.30995111 -654.93823337 38.30995111 -653.59860064 38.3120437 C-647.24318644 38.3220453 -640.88777428 38.33300386 -634.53236222 38.34427595 C-607.95045593 38.39098241 -581.36858157 38.4160275 -554.78663826 38.42835045 C-552.84590296 38.42927981 -550.90516767 38.43021121 -548.96443237 38.43114462 C-532.13316074 38.43915471 -515.30188863 38.44592917 -498.47061616 38.45192476 C-485.22489238 38.45665518 -471.97916915 38.46218709 -458.73344612 38.46869469 C-457.20957807 38.46942655 -457.20957807 38.46942655 -455.6549248 38.47017321 C-422.69995573 38.48628569 -389.7451916 38.54208547 -356.79030926 38.61731835 C-322.90879039 38.69443609 -289.02748232 38.72879772 -255.14587464 38.71033567 C-250.36220798 38.70775532 -245.57854122 38.7056787 -240.79487419 38.70391655 C-239.8534118 38.7035564 -238.9119494 38.70319625 -237.94195784 38.70282518 C-222.78418336 38.69831421 -207.62685374 38.7391742 -192.46920357 38.7971668 C-177.23950586 38.85451128 -162.01035598 38.86488489 -146.78059186 38.82710382 C-137.73044597 38.80610021 -128.68205112 38.82143262 -119.63212118 38.88861184 C-113.58708658 38.92992364 -107.54328418 38.9240825 -101.4982727 38.87993877 C-98.0529937 38.85613159 -94.61108328 38.85280119 -91.16607346 38.90702632 C-76.91610683 39.8465873 -76.91610683 39.8465873 -64.45714736 34.42587233 C-61.80450836 31.33115059 -60.05208834 27.86328713 -58.16948128 24.25726891 C-43.43024026 8.02512464 -21.5287287 -0.07952918 0 0 Z " fill="#212124" transform="translate(997.1694812774658,4.742731094360352)"/>
<path d="M0 0 C1.11598916 -0.00292886 2.23197832 -0.00585773 3.38178534 -0.00887535 C7.10738914 -0.01622998 10.83282752 -0.00941374 14.55843037 -0.0026266 C17.27355186 -0.00390675 19.98866678 -0.00820108 22.70378521 -0.0123432 C28.61830978 -0.01976902 34.53279831 -0.0197964 40.44732503 -0.01495371 C49.30163708 -0.00773982 58.15591815 -0.01208249 67.01022938 -0.01863506 C82.1021876 -0.02946295 97.19413335 -0.03079305 112.28609437 -0.02693671 C127.57898182 -0.02306025 142.87185997 -0.02351581 158.16474694 -0.02924651 C159.13087842 -0.02960533 160.09700991 -0.02996416 161.0924181 -0.03033386 C165.02736574 -0.03180878 168.96231336 -0.03331317 172.89726097 -0.03485533 C212.84065272 -0.05049106 252.78403807 -0.05316921 292.72743232 -0.05069926 C298.24665772 -0.05036082 303.76588311 -0.05003872 309.28510851 -0.04973358 C310.9294786 -0.04964201 310.9294786 -0.04964201 312.60706829 -0.0495486 C336.89967589 -0.04827679 361.19228262 -0.05087792 385.48488996 -0.05425965 C391.03146684 -0.05503039 396.57804373 -0.05577511 402.12462061 -0.05652466 C404.35067802 -0.05682635 406.57673543 -0.05712823 408.80279284 -0.0574303 C410.45791519 -0.05765482 410.45791519 -0.05765482 412.14647435 -0.05788388 C414.37837005 -0.05818741 416.61026576 -0.05849209 418.84216146 -0.05879792 C482.1745178 -0.0674715 545.50687337 -0.07211444 608.83923024 -0.06785029 C610.01204273 -0.06777223 611.18485521 -0.06769418 612.39320747 -0.06761376 C625.47140263 -0.06674095 638.54959778 -0.06581169 651.62779293 -0.06486312 C653.39895607 -0.06473486 653.39895607 -0.06473486 655.20590028 -0.064604 C665.0173581 -0.06389319 665.0173581 -0.06389319 669.53135699 -0.06356178 C745.06395187 -0.05802553 820.59653453 -0.06556924 896.1291272 -0.08433264 C915.16196568 -0.08905482 934.19480417 -0.09373531 953.22764271 -0.09816951 C954.3995528 -0.09844283 955.57146289 -0.09871615 956.7788854 -0.09899775 C992.89395009 -0.10736816 1029.00901376 -0.11204863 1065.12407941 -0.11287707 C1066.25782106 -0.11290344 1067.39156272 -0.1129298 1068.55966019 -0.11295697 C1093.44707158 -0.11349773 1118.3344829 -0.11312533 1143.22189427 -0.11191725 C1152.12683487 -0.11149163 1161.03177548 -0.1111265 1169.93671608 -0.11078781 C1172.15205288 -0.11070251 1174.36738969 -0.11061358 1176.58272649 -0.11052099 C1211.88949707 -0.10907193 1247.19625935 -0.11620035 1282.50302793 -0.12752496 C1319.04778695 -0.13917076 1355.59253114 -0.13974331 1392.13729022 -0.12768153 C1396.06144463 -0.12642969 1399.98559906 -0.12522621 1403.9097535 -0.12406081 C1405.35434017 -0.12362537 1405.35434017 -0.12362537 1406.8281104 -0.12318113 C1422.07870202 -0.11885535 1437.32927257 -0.12458724 1452.57986087 -0.134501 C1467.57494002 -0.14403704 1482.56998665 -0.14286471 1497.56506391 -0.13029478 C1506.3562335 -0.12324447 1515.14730961 -0.12437311 1523.93847253 -0.13764316 C1529.78026833 -0.14563924 1535.6219935 -0.14271518 1541.46378283 -0.13099352 C1544.77325847 -0.12465578 1548.08239973 -0.12454462 1551.39188829 -0.13456073 C1577.82391188 -0.20909752 1598.89653779 2.56498748 1619.13669556 21.09169275 C1637.03690304 39.52523974 1638.38551409 63.20016894 1638.38152283 87.43646508 C1638.38482786 89.26611812 1638.38855476 91.09577043 1638.39266431 92.92542183 C1638.40261894 97.92778909 1638.40639045 102.93014435 1638.40905362 107.93252009 C1638.41297594 113.33759793 1638.42255248 118.74266644 1638.43126649 124.14773828 C1638.4509713 137.18408377 1638.46108711 150.22042997 1638.46999428 163.25678661 C1638.47438488 169.40360227 1638.47974948 175.55041708 1638.48498315 181.69723207 C1638.50198546 202.1407705 1638.51648017 222.58430842 1638.52373189 243.02785283 C1638.52564159 248.32541862 1638.52756196 253.6229844 1638.52951783 258.92055017 C1638.53000157 260.23713783 1638.53048531 261.55372549 1638.53098371 262.91020975 C1638.53928637 284.24399602 1638.56463175 305.57771526 1638.59709851 326.91147872 C1638.63019366 348.83757244 1638.64818266 370.76363769 1638.65137613 392.68975651 C1638.65353837 404.99128356 1638.66224587 417.29272878 1638.6878373 429.59423143 C1638.7095774 440.06813861 1638.7175782 450.54194406 1638.70787052 461.01587125 C1638.70333617 466.35471777 1638.70516197 471.69335449 1638.72463197 477.03217202 C1638.7423372 481.92953782 1638.74120658 486.82654188 1638.72573467 491.72391192 C1638.72336981 493.48562505 1638.72762318 495.24736373 1638.73956332 497.00903799 C1638.83029206 511.29202125 1637.4949072 525.85819577 1630.48435181 538.626849 C1630.14218629 539.27838952 1629.80002076 539.92993005 1629.44748658 540.60121423 C1619.10620242 559.78823014 1603.6220018 572.63366964 1582.92185181 579.3221615 C1572.00071259 582.19174655 1561.31993356 582.38807521 1550.09365052 582.32816488 C1548.51699413 582.32353874 1546.94033643 582.31934296 1545.36367786 582.31553036 C1540.94228574 582.30337084 1536.52094404 582.28441737 1532.09958187 582.2643026 C1528.16776894 582.24721314 1524.23594633 582.23386263 1520.30411949 582.22042252 C1506.34660123 582.17252658 1492.38915053 582.111103 1478.4316922 582.04841511 C1472.31187919 582.02108895 1466.19206292 581.9945224 1460.07224672 581.96792361 C1447.42645491 581.91293417 1434.78066647 581.85720556 1422.13487977 581.80105478 C1409.33969502 581.74424323 1396.5445088 581.6877816 1383.74932069 581.63173372 C1382.93685471 581.62817455 1382.12438872 581.62461539 1381.28730256 581.62094837 C1377.97718692 581.60644885 1374.66707126 581.5919517 1371.3569556 581.57745757 C1337.82994932 581.43065038 1304.30294758 581.28282591 1270.77594755 581.13459925 C1266.14672714 581.11413327 1261.51750672 581.09366885 1256.88828629 581.07320601 C1255.96835856 581.06913958 1255.04843082 581.06507315 1254.10062649 581.0608835 C1233.62315369 580.97037241 1213.14567949 580.88018102 1192.668205 580.79005436 C1189.85660481 580.77767976 1187.04500463 580.76530446 1184.23340445 580.75292894 C1176.69262641 580.7197376 1169.15184838 580.68654694 1161.61107033 580.65335761 C1108.95333513 580.42159064 1056.29560134 580.18950545 1003.63787049 579.9567526 C1002.64586047 579.95236786 1001.65385046 579.94798313 1000.63177953 579.94346553 C989.57338554 579.89458657 978.51499158 579.84570273 967.45659763 579.79681695 C966.45847903 579.79240458 965.46036043 579.7879922 964.43199582 579.78344612 C960.395595 579.76560241 956.35919418 579.74775869 952.32279336 579.72991466 C888.84540013 579.44929596 825.36800287 579.16960881 761.89060181 578.89076501 C745.96663633 578.82081362 730.04267085 578.75085953 714.11870545 578.68088895 C713.13734892 578.67657686 712.15599238 578.67226476 711.14489777 578.667822 C680.7026433 578.5340548 650.26038998 578.40002678 619.81813782 578.26573354 C618.85652067 578.26149147 617.89490351 578.25724941 616.90414644 578.25287879 C595.75055139 578.15955935 574.59695662 578.0661759 553.44336211 577.97273486 C545.86440689 577.93925699 538.28545166 577.90578297 530.70649642 577.87231049 C528.82189202 577.86398704 526.93728763 577.85566333 525.05268323 577.84733936 C499.10580234 577.73273777 473.1589199 577.61849575 447.21203569 577.50465004 C431.04444621 577.43371128 414.87685712 577.36268361 398.70926829 577.29159808 C396.9433564 577.28383382 395.17744451 577.27607019 393.41153262 577.2683072 C353.95172599 577.09483622 314.49192728 576.91986696 275.0321576 576.73816282 C274.24757526 576.73455106 273.46299291 576.7309393 272.65463534 576.7272181 C257.2868974 576.65646736 241.91916064 576.58546626 226.55142628 576.51394127 C218.51818415 576.47655782 210.48494143 576.43930175 202.45169801 576.40219766 C201.74455063 576.39893073 201.03740326 576.39566381 200.30882718 576.39229789 C177.30079915 576.28609166 154.29274362 576.18898887 131.28465247 576.09733563 C113.57573314 576.02666578 95.86684679 575.95013809 78.1579777 575.86782272 C67.59593677 575.81896732 57.03390708 575.775392 46.47181202 575.74006402 C39.62891971 575.71668779 32.78608059 575.68651404 25.94324307 575.6505103 C22.13033295 575.63064772 18.31747849 575.61371513 14.50452369 575.60560809 C10.45865497 575.59697463 6.41301031 575.57338465 2.36721009 575.54831868 C1.22657304 575.54837016 0.08593599 575.54842164 -1.08926582 575.54847467 C-23.14316585 575.36210649 -41.91220158 570.02371697 -57.76564819 554.251849 C-58.72277709 553.34692712 -58.72277709 553.34692712 -59.69924194 552.423724 C-74.09221535 537.67813877 -76.38104452 515.78894727 -76.26685363 496.26904565 C-76.27075497 494.4015131 -76.27640204 492.53398353 -76.28362453 490.66646087 C-76.29827736 485.57795068 -76.2882589 480.48975316 -76.27388781 475.4012534 C-76.26272372 469.89675055 -76.2747385 464.39228963 -76.28372985 458.88778955 C-76.29762714 448.12185352 -76.29013222 437.35603518 -76.27505427 426.59010481 C-76.25815138 414.041127 -76.26140981 401.49217817 -76.26514835 388.94319249 C-76.27119767 365.87068238 -76.2554497 342.79822703 -76.22996071 319.72573577 C-76.20684529 298.69039384 -76.20145966 277.65512068 -76.21169311 256.61976892 C-76.2142954 251.23160284 -76.2168805 245.84343676 -76.21929103 240.45527059 C-76.21958848 239.79179668 -76.21988593 239.12832278 -76.22019239 238.4447436 C-76.22781718 220.83494204 -76.22132712 203.2251459 -76.21059501 185.61534679 C-76.20906924 183.08965065 -76.20754889 180.56395452 -76.206034 178.03825837 C-76.20489728 176.17443734 -76.20489728 176.17443734 -76.2037376 174.27296336 C-76.19900331 165.5344079 -76.20084012 156.795868 -76.2050994 148.05731279 C-76.21003577 137.40265042 -76.20399838 126.74805902 -76.18420511 116.09341287 C-76.17436168 110.66166962 -76.16919608 105.23003424 -76.17709762 99.79828531 C-76.18419317 94.81856893 -76.1772598 89.83906949 -76.15949399 84.85938156 C-76.15547452 83.06553087 -76.1564069 81.27166015 -76.16301285 79.47781711 C-76.23986212 56.64111271 -71.37317215 36.81639425 -55.57814819 19.501849 C-40.0199738 5.05753928 -20.83090459 -0.09607818 0 0 Z " fill="#404040" transform="translate(154.76564818620682,1257.7481510043144)"/>
<path d="M0 0 C1.25849258 -0.00191345 2.51698517 -0.0038269 3.81361389 -0.00579834 C6.46890161 -0.00715632 9.12381831 -0.00450114 11.77905273 0.00488281 C15.16248084 0.0162649 18.54559111 0.0097165 21.92900753 -0.00226212 C25.1818493 -0.01127751 28.43465406 -0.00494197 31.6875 0 C33.4956443 -0.00607269 33.4956443 -0.00607269 35.34031677 -0.01226807 C44.63438984 0.03921923 51.64445724 1.34523322 60.03515625 5.578125 C61.77152344 6.43857422 61.77152344 6.43857422 63.54296875 7.31640625 C75.09908551 14.00608405 82.23981134 25.18093767 85.94311559 37.77981997 C87.14471255 42.6697103 87.19178061 47.38734796 87.17186928 52.4017868 C87.17586534 53.40040454 87.1798614 54.39902227 87.18397856 55.42790115 C87.1949544 58.77681348 87.19175126 62.12556063 87.18862915 65.4744873 C87.19363191 67.89852666 87.19950764 70.32256434 87.20618188 72.74659967 C87.21869484 78.01816497 87.22503884 83.28968404 87.22594261 88.56126022 C87.22731996 96.39986212 87.24011139 104.23841649 87.25523035 112.07700244 C87.28034142 125.26342205 87.29621249 138.44983763 87.30681229 151.63627625 C87.31733719 164.69195927 87.3319721 177.74762704 87.35209274 190.80329895 C87.35334161 191.61514825 87.35459048 192.42699754 87.35587719 193.26344833 C87.36224097 197.38644307 87.36867814 201.5094377 87.37514357 205.63243228 C87.42080274 234.83339742 87.4572519 264.03436752 87.48828125 293.23535156 C87.51844638 321.60319748 87.55278546 349.97103334 87.59277344 378.33886719 C87.59400444 379.21333174 87.59523544 380.0877963 87.59650375 380.98875978 C87.60887064 389.77051529 87.62132236 398.55227067 87.63383623 407.33402597 C87.65932637 425.22337503 87.68425028 443.11272486 87.70883179 461.0020752 C87.71052815 462.23585248 87.71052815 462.23585248 87.71225878 463.49455456 C87.78771037 518.41823303 87.84992151 573.34192799 87.91015625 628.265625 C88.59686401 627.64530396 89.28357178 627.02498291 89.99108887 626.38586426 C90.89186157 625.57339233 91.79263428 624.76092041 92.72070312 623.92382812 C93.61366089 623.11788208 94.50661865 622.31193604 95.42663574 621.48156738 C98.0273936 619.16101898 100.68517409 616.93871204 103.41015625 614.765625 C107.00493275 611.8574912 110.49276253 608.88021168 113.91015625 605.765625 C117.23005111 602.74280079 120.60779737 599.84050339 124.09765625 597.015625 C130.53564531 591.80176062 136.76179191 586.35521247 143.00927734 580.91650391 C150.95621307 574.01473415 158.97693524 567.19875214 167.01831055 560.4074707 C170.97501631 557.06344704 174.91541837 553.70087815 178.84765625 550.328125 C179.42684814 549.83143311 180.00604004 549.33474121 180.6027832 548.82299805 C183.57771666 546.27052082 186.54992705 543.71492518 189.51953125 541.15625 C194.85136259 536.5672659 200.19345296 532.00684666 205.66015625 527.578125 C210.0416742 524.02294596 214.22726306 520.29792963 218.3984375 516.5 C220.91166857 514.26427967 223.48327104 512.13184818 226.09765625 510.015625 C230.548688 506.41091619 234.90197056 502.71173429 239.22265625 498.953125 C239.8583252 498.40060059 240.49399414 497.84807617 241.14892578 497.27880859 C243.67366778 495.08313122 246.1974058 492.88630224 248.72070312 490.68896484 C252.75593067 487.18099217 256.81572949 483.70434843 260.91015625 480.265625 C261.5021582 479.76724121 262.09416016 479.26885742 262.70410156 478.75537109 C269.98767295 472.67392346 276.87660642 467.52617189 285.91015625 464.265625 C286.76480469 463.9046875 287.61945312 463.54375 288.5 463.171875 C301.43574669 459.73419661 317.18075173 460.81017171 328.91015625 467.265625 C329.78285156 467.70003906 330.65554688 468.13445312 331.5546875 468.58203125 C341.50570961 473.94732889 348.62282411 482.62400025 355.5546875 491.359375 C357.22303846 493.41783788 358.90060584 495.39524383 360.671875 497.359375 C367.30860498 504.77556388 372.04056796 512.04855901 375.91015625 521.265625 C376.29171875 522.1525 376.67328125 523.039375 377.06640625 523.953125 C380.36979871 536.92199911 379.37161718 552.52530474 372.91015625 564.265625 C372.47574219 565.13832031 372.04132812 566.01101563 371.59375 566.91015625 C366.17905995 576.95278652 357.41359574 584.03043248 348.62890625 591.05078125 C345.97514272 593.21268344 343.43766484 595.45807364 340.91015625 597.765625 C337.59026139 600.78844921 334.21251513 603.69074661 330.72265625 606.515625 C324.28466719 611.72948938 318.05852059 617.17603753 311.81103516 622.61474609 C303.86409943 629.51651585 295.84337726 636.33249786 287.80200195 643.1237793 C283.84529619 646.46780296 279.90489413 649.83037185 275.97265625 653.203125 C275.39346436 653.69981689 274.81427246 654.19650879 274.2175293 654.70825195 C271.24259584 657.26072918 268.27038545 659.81632482 265.30078125 662.375 C259.96894991 666.9639841 254.62685954 671.52440334 249.16015625 675.953125 C244.7786383 679.50830404 240.59304944 683.23332037 236.421875 687.03125 C233.90864393 689.26697033 231.33704146 691.39940182 228.72265625 693.515625 C222.28466719 698.72948938 216.05852059 704.17603753 209.81103516 709.61474609 C201.86489493 716.51582498 193.84561751 723.33197468 185.80419922 730.12158203 C181.82391494 733.48488007 177.86354583 736.8707717 173.91015625 740.265625 C168.89377049 744.57329401 163.85693521 748.85557074 158.8046875 753.12109375 C154.82432024 756.48464865 150.86372001 759.87062213 146.91015625 763.265625 C142.42517705 767.11696475 137.92715889 770.95189296 133.41015625 774.765625 C126.54562863 780.5626847 119.72635806 786.41188743 112.91015625 792.265625 C105.56164557 798.57650814 98.20275308 804.8736688 90.80224609 811.12353516 C86.84549341 814.46769111 82.90552396 817.83092455 78.97265625 821.203125 C78.39346436 821.6983667 77.81427246 822.1936084 77.2175293 822.70385742 C74.22684294 825.26404421 71.2522845 827.8400126 68.30078125 830.4453125 C52.08067281 844.69881271 37.13313407 852.61727873 15.22265625 852.640625 C14.03220703 852.66511719 12.84175781 852.68960938 11.61523438 852.71484375 C-8.33050538 852.77991957 -21.95135807 843.78041046 -36.19335938 830.96044922 C-39.13955211 828.32753599 -42.1450552 825.76575116 -45.15234375 823.203125 C-46.3087885 822.21376927 -47.4650387 821.22418607 -48.62109375 820.234375 C-49.47767578 819.50154297 -49.47767578 819.50154297 -50.3515625 818.75390625 C-52.10937293 817.24890451 -53.86548821 815.74194797 -55.62109375 814.234375 C-61.26116793 809.39212317 -66.91057342 804.56187486 -72.58984375 799.765625 C-77.08388224 795.97032556 -81.56248587 792.15771617 -86.02734375 788.328125 C-86.60653564 787.83143311 -87.18572754 787.33474121 -87.7824707 786.82299805 C-90.75740416 784.27052082 -93.72961455 781.71492518 -96.69921875 779.15625 C-102.03105009 774.5672659 -107.37314046 770.00684666 -112.83984375 765.578125 C-117.2213617 762.02294596 -121.40695056 758.29792963 -125.578125 754.5 C-128.09135607 752.26427967 -130.66295854 750.13184818 -133.27734375 748.015625 C-139.71533281 742.80176062 -145.94147941 737.35521247 -152.18896484 731.91650391 C-160.13590057 725.01473415 -168.15662274 718.19875214 -176.19799805 711.4074707 C-180.15470381 708.06344704 -184.09510587 704.70087815 -188.02734375 701.328125 C-188.60653564 700.83143311 -189.18572754 700.33474121 -189.7824707 699.82299805 C-192.75740416 697.27052082 -195.72961455 694.71492518 -198.69921875 692.15625 C-204.03105009 687.5672659 -209.37314046 683.00684666 -214.83984375 678.578125 C-219.2213617 675.02294596 -223.40695056 671.29792963 -227.578125 667.5 C-230.09135607 665.26427967 -232.66295854 663.13184818 -235.27734375 661.015625 C-241.71533281 655.80176062 -247.94147941 650.35521247 -254.18896484 644.91650391 C-262.13590057 638.01473415 -270.15662274 631.19875214 -278.19799805 624.4074707 C-282.15470381 621.06344704 -286.09510587 617.70087815 -290.02734375 614.328125 C-290.60653564 613.83143311 -291.18572754 613.33474121 -291.7824707 612.82299805 C-294.75740416 610.27052082 -297.72961455 607.71492518 -300.69921875 605.15625 C-301.89171596 604.12996297 -303.08442277 603.10391942 -304.27734375 602.078125 C-305.15398682 601.32414429 -305.15398682 601.32414429 -306.04833984 600.55493164 C-309.53694203 597.56505147 -313.0718515 594.64558616 -316.65234375 591.765625 C-331.28093527 579.79481303 -342.86329491 568.49510963 -347.08984375 549.265625 C-348.76552454 529.56683075 -345.0720668 515.97254186 -332.35327148 500.72119141 C-330.45517899 498.47498735 -328.53156007 496.25143606 -326.60595703 494.02880859 C-325.05166786 492.22122785 -323.51989564 490.39648829 -321.9921875 488.56640625 C-312.0901048 476.73796382 -300.95380272 465.41811388 -285.08984375 462.265625 C-272.22429493 461.25319512 -259.58336807 460.80564129 -248.08984375 467.265625 C-247.15527344 467.77351563 -246.22070312 468.28140625 -245.2578125 468.8046875 C-239.1167274 472.42921605 -234.00801797 476.8693173 -228.82421875 481.73828125 C-226.23590178 484.13062565 -223.58307061 486.3664998 -220.83984375 488.578125 C-216.40715789 492.15958384 -212.07572156 495.83794236 -207.77734375 499.578125 C-206.82698242 500.40485718 -206.82698242 500.40485718 -205.85742188 501.24829102 C-204.5713592 502.36740659 -203.28538927 503.48662876 -201.99951172 504.60595703 C-194.85593134 510.81435123 -187.69338503 516.99386472 -180.33984375 522.953125 C-175.9583258 526.50830404 -171.77273694 530.23332037 -167.6015625 534.03125 C-165.08833143 536.26697033 -162.51672896 538.39940182 -159.90234375 540.515625 C-153.46272382 545.73081015 -147.23528972 551.17894252 -140.98632812 556.61914062 C-136.29199854 560.69465025 -131.56085634 564.72746347 -126.83691406 568.76855469 C-125.05148751 570.29849259 -123.2694823 571.83233301 -121.48828125 573.3671875 C-116.15434311 577.95939635 -110.80942162 582.52207457 -105.33984375 586.953125 C-100.9583258 590.50830404 -96.77273694 594.23332037 -92.6015625 598.03125 C-89.20662213 601.05132137 -85.67688029 603.88919389 -82.14453125 606.74609375 C-77.9391278 610.21474493 -73.83621387 613.79700182 -69.7434082 617.39746094 C-66.1809852 620.51439809 -62.54948448 623.52143915 -58.84790039 626.47241211 C-57.95470596 627.18505722 -57.06151154 627.89770233 -56.14125061 628.63194275 C-55.46428635 629.17105789 -54.78732208 629.71017303 -54.08984375 630.265625 C-54.08924666 629.02637121 -54.08864957 627.78711741 -54.08803439 626.51031047 C-54.06145446 571.88745457 -54.02992725 517.26460324 -53.97320557 462.64176941 C-53.97234806 461.81463848 -53.97149055 460.98750754 -53.97060705 460.13531204 C-53.95194087 442.15897347 -53.9323883 424.18263596 -53.9119228 406.20629935 C-53.90189173 397.39054415 -53.89205651 388.57478874 -53.88232422 379.7590332 C-53.88135241 378.88176557 -53.88038061 378.00449793 -53.87937935 377.10064643 C-53.84797936 348.67245124 -53.82950838 320.24426554 -53.81775128 291.81605601 C-53.80559969 262.59924627 -53.78038619 233.38247617 -53.73876761 204.16569284 C-53.73289363 200.0378118 -53.72716877 195.90993056 -53.72153473 191.78204918 C-53.72042127 190.9696332 -53.71930781 190.15721721 -53.71816061 189.32018256 C-53.70062959 176.24928938 -53.69684358 163.17842671 -53.69821454 150.10752335 C-53.6992993 136.96274823 -53.6858632 123.81805117 -53.65767947 110.67330567 C-53.64137991 102.86640966 -53.63613953 95.05969035 -53.646872 87.25278372 C-53.65366489 81.41818024 -53.63958861 75.58374673 -53.61750713 69.74917706 C-53.61181954 67.3923057 -53.61284504 65.03540637 -53.6213313 62.67854343 C-53.6831242 43.90591569 -51.86567851 29.02311296 -39.08984375 14.265625 C-26.61749034 3.86554149 -16.08216692 -0.05392177 0 0 Z " fill="#FEFEFE" transform="translate(917.08984375,231.734375)"/>
<path d="M0 0 C13.96667844 10.65819658 20.63720244 23.70682284 28.08203125 39.25 C28.98294294 41.11435458 29.88439767 42.97844684 30.78637695 44.84228516 C36.00287299 55.64550405 41.09559708 66.49940588 46.09008789 77.40698242 C52.84895871 92.05595559 60.04535173 106.49710254 67.17456055 120.96826172 C73.88060822 134.58461822 80.50235843 148.23838481 87.04905701 161.93208313 C89.51305496 167.0822776 91.985679 172.22833171 94.45703125 177.375 C95.45833333 179.46223958 96.45963542 181.54947917 97.4609375 183.63671875 C99.44304013 187.76669049 101.43038931 191.8940764 103.421875 196.01953125 C108.71321007 206.99289526 113.91808956 217.99945918 119.01953125 229.0625 C123.33262869 238.40829005 127.78447999 247.66301654 132.42724609 256.84912109 C138.74090542 269.35435877 144.7225459 282.02186832 150.66015625 294.70922852 C153.41496358 300.59530619 156.21733708 306.44756032 159.14453125 312.25 C167.9592367 329.74444678 176.30890449 347.46368409 184.47973633 365.26635742 C187.35509627 371.48865557 190.3166606 377.64765483 193.421875 383.7578125 C193.7497551 384.40438309 194.07763519 385.05095367 194.41545105 385.71711731 C196.00491256 388.84594184 197.60701909 391.967366 199.22827148 395.07983398 C199.79618408 396.18915283 200.36409668 397.29847168 200.94921875 398.44140625 C201.71274658 399.91009155 201.71274658 399.91009155 202.49169922 401.40844727 C203.45703125 403.875 203.45703125 403.875 202.45703125 406.875 C187.61201112 402.58087439 172.76953787 398.28022719 157.95703125 393.875 C148.38333092 391.02903284 138.79954751 388.2193043 129.20703125 385.4375 C128.55890472 385.24943787 127.9107782 385.06137573 127.24301147 384.86761475 C120.11999486 382.80098489 112.99506084 380.74123411 105.8671875 378.69140625 C98.77409174 376.64903271 91.68795367 374.58365628 84.60559082 372.50445557 C82.32212721 371.83547766 80.03756373 371.17034013 77.75292969 370.50537109 C73.6748819 369.31653743 69.60192714 368.11136658 65.53158569 366.89642334 C63.9633742 366.43068544 62.3937603 365.96963897 60.82266235 365.51373291 C38.04964308 358.89395844 38.04964308 358.89395844 31.95703125 348.69921875 C29.00803312 343.1468082 26.17663935 337.54252265 23.44042969 331.88232422 C22.06774948 329.08039356 20.63354179 326.31030623 19.19580078 323.54125977 C18.45703125 321.875 18.45703125 321.875 18.45703125 319.875 C26.03231181 320.63466797 33.08168645 323.1066596 40.30078125 325.43554688 C48.59653868 327.97796492 57.74911777 330.10223736 65.83203125 325.8125 C71.71398371 322.49806647 74.39647096 318.65265789 76.76953125 312.4375 C79.58520676 297.84718145 70.75841008 285.19129528 64.375 272.515625 C63.59382794 270.95702572 62.81301763 269.39824508 62.032547 267.83929443 C59.98917864 263.76013243 57.94102788 259.68339086 55.89178467 255.60717773 C53.82928949 251.50257514 51.77124949 247.39574047 49.71289062 243.2890625 C46.67457232 237.22825795 43.63372007 231.16873443 40.59057617 225.11035156 C34.44469822 212.87298781 28.32862333 200.62076205 22.21578979 188.36686707 C19.48843326 182.89983561 16.75901714 177.43383281 14.02940178 171.96792889 C11.96890324 167.84169396 9.90916862 163.71508115 7.85107422 159.58764648 C5.83361238 155.54178487 3.81414474 151.49693009 1.79333878 147.45273781 C1.03282371 145.92988038 0.27300466 144.40667513 -0.48605728 142.88309288 C-8.87556109 122.9601264 -8.87556109 122.9601264 -24.85546875 110 C-32.93728072 107.69483122 -40.98320703 108.12260918 -48.54296875 111.875 C-57.50892891 117.01571461 -61.24642335 126.96955662 -65.54296875 135.875 C-66.19918213 137.22416504 -66.19918213 137.22416504 -66.86865234 138.60058594 C-70.94654867 146.99992163 -74.94045422 155.43836197 -78.890625 163.8984375 C-83.00424869 172.68830853 -87.30744523 181.32693837 -91.88085938 189.88720703 C-94.61207154 195.02575122 -97.16842671 200.21608303 -99.60546875 205.5 C-102.18829662 211.10000517 -104.92620947 216.57327691 -107.85546875 222 C-111.47701027 228.71928678 -114.83270673 235.5419058 -118.10546875 242.4375 C-125.16694462 257.3126761 -132.58183606 271.95832386 -140.23974609 286.53662109 C-140.78195801 287.57254395 -141.32416992 288.6084668 -141.8828125 289.67578125 C-142.37128662 290.60559814 -142.85976074 291.53541504 -143.36303711 292.4934082 C-146.61822892 299.06373639 -146.73398235 307.30466467 -144.89453125 314.36328125 C-142.18928864 320.31712717 -137.57724548 324.35786163 -131.79296875 327.25 C-121.30701134 329.26653027 -112.37755075 326.69424146 -102.48046875 323.375 C-99.88702543 322.52623673 -97.29107913 321.68540362 -94.6953125 320.84375 C-93.56085693 320.46669922 -92.42640137 320.08964844 -91.25756836 319.70117188 C-88.54296875 318.875 -88.54296875 318.875 -86.54296875 318.875 C-88.71023201 324.40204871 -91.20817892 329.75276158 -93.73046875 335.125 C-94.41592773 336.62353516 -94.41592773 336.62353516 -95.11523438 338.15234375 C-100.08798089 348.70477394 -105.49988369 357.11834339 -116.58610535 361.72375488 C-118.70234005 362.45659051 -120.82731878 363.11286702 -122.9765625 363.7421875 C-123.76321289 363.98255234 -124.54986328 364.22291718 -125.36035156 364.4705658 C-127.89701606 365.24210548 -130.43840569 365.99645849 -132.98046875 366.75 C-134.74704902 367.2827088 -136.51340504 367.81616182 -138.27954102 368.3503418 C-149.76380795 371.81014087 -161.28476574 375.12756343 -172.8515625 378.30078125 C-178.76847017 379.92576862 -184.65631494 381.64408039 -190.54296875 383.375 C-198.8579772 385.81865856 -207.19184784 388.18286776 -215.54296875 390.5 C-223.50652944 392.71307758 -231.4071025 395.04239755 -239.28515625 397.54296875 C-244.91574297 399.31731331 -250.57098633 401.00799326 -256.23046875 402.6875 C-257.27146729 403.00203125 -258.31246582 403.3165625 -259.38500977 403.640625 C-260.36912842 403.93066406 -261.35324707 404.22070312 -262.3671875 404.51953125 C-263.24463623 404.78096924 -264.12208496 405.04240723 -265.02612305 405.31176758 C-267.6131356 405.89070229 -269.90113137 405.97782867 -272.54296875 405.875 C-271.14244331 401.29942716 -269.27715328 397.12139879 -267.09375 392.87890625 C-266.3710184 391.45373832 -265.64922771 390.02809297 -264.92822266 388.60205078 C-264.34938324 387.45896454 -264.34938324 387.45896454 -263.7588501 386.29278564 C-261.58516133 381.97039554 -259.46164654 377.62347831 -257.3359375 373.27734375 C-256.88430237 372.35448578 -256.43266724 371.43162781 -255.96734619 370.48080444 C-254.55420323 367.59178453 -253.14220756 364.7022063 -251.73046875 361.8125 C-251.24197449 360.81311401 -250.75348022 359.81372803 -250.25018311 358.78405762 C-244.60846751 347.24010097 -238.97852159 335.69190461 -233.46166992 324.08764648 C-229.87938527 316.55634159 -226.2422109 309.05224923 -222.59918213 301.55020142 C-213.21679848 282.22780444 -203.84973844 262.90585777 -194.95214844 243.35375977 C-192.0160877 236.93641409 -188.93886684 230.60562972 -185.76806641 224.30232239 C-181.39596185 215.60987947 -177.12406914 206.86863126 -172.85546875 198.125 C-172.41555603 197.22438843 -171.97564331 196.32377686 -171.5223999 195.39587402 C-165.77814391 183.62709113 -160.15095627 171.81923988 -154.6965332 159.91308594 C-149.04031121 147.64503672 -143.04726517 135.54247338 -137.09033203 123.41848755 C-130.825383 110.66251139 -124.64073357 97.88286795 -118.75 84.94921875 C-116.20193345 79.36843899 -113.55066549 73.85795869 -110.78515625 68.3828125 C-107.70827694 62.28782957 -104.76541179 56.14016161 -101.88671875 49.94921875 C-101.08335065 48.22850754 -100.27996511 46.50780447 -99.4765625 44.78710938 C-98.25354564 42.1659027 -97.03412379 39.54328393 -95.82470703 36.91577148 C-86.62923503 16.96761918 -76.2740119 0.63048462 -54.73046875 -7.4375 C-36.52353031 -13.81127313 -15.79789621 -10.98984084 0 0 Z " fill="#404040" transform="translate(502.54296875,1335.125)"/>
<path d="M0 0 C12.43446392 9.82124491 19.72143148 21.90700156 26.30859375 36.0234375 C26.99983818 37.47885535 27.69215903 38.93376241 28.38549805 40.38818359 C30.46262234 44.75759031 32.51354216 49.13894671 34.55859375 53.5234375 C35.16421406 54.81934117 35.76984514 56.11523981 36.37548828 57.41113281 C39.10709452 63.26227875 41.82119919 69.12141409 44.52734375 74.984375 C47.43236985 81.26807275 50.38639586 87.52722449 53.37109375 93.7734375 C53.77884033 94.6288916 54.18658691 95.4843457 54.60668945 96.36572266 C57.15094486 101.67392532 59.76317626 106.94561856 62.40234375 112.20703125 C66.41968749 120.21679753 70.34575234 128.26867464 74.24609375 136.3359375 C74.94438715 137.77890457 75.64271131 139.22185676 76.34106445 140.66479492 C77.74764287 143.57174791 79.15340503 146.47909376 80.55859375 149.38671875 C81.82012233 151.99681956 83.08292575 154.60629296 84.34765625 157.21484375 C92.11076694 173.22851626 99.68078395 189.32272663 107.1484375 205.47558594 C111.41060846 214.68766042 115.70248898 223.87597136 120.26953125 232.94140625 C124.54140783 241.45520657 128.71590475 250.01471574 132.87109375 258.5859375 C133.24054108 259.34722961 133.6099884 260.10852173 133.9906311 260.8928833 C138.86825404 270.94384596 143.72366618 281.00495991 148.52880859 291.09082031 C150.97432575 296.22152083 153.43700403 301.34336298 155.91796875 306.45703125 C161.69663569 318.36987562 167.41715005 330.29837935 172.93359375 342.3359375 C176.91340588 351.01338028 181.00281088 359.60545189 185.33447266 368.11181641 C204.85752863 406.57387203 204.85752863 406.57387203 212.55859375 425.5234375 C201.7175071 423.02809181 191.09032603 419.7918668 180.42990112 416.62973022 C174.73748292 414.94153024 169.04256497 413.26180727 163.34765625 411.58203125 C161.61137215 411.06969688 161.61137215 411.06969688 159.8400116 410.54701233 C148.57104689 407.22536597 137.28578691 403.96131133 125.99609375 400.7109375 C111.60544438 396.56662644 97.2243713 392.3934042 82.86889648 388.12866211 C75.61003451 385.97720363 68.33631308 383.89806158 61.03515625 381.89453125 C58.64770362 381.23360478 56.26050827 380.57175568 53.87335205 379.90975952 C51.6350231 379.29444776 49.39276687 378.6954476 47.14990234 378.09692383 C33.47369906 374.35928734 23.94379529 369.22733538 16.51757812 356.77832031 C8.24758783 342.28693879 0.99423552 326.90930954 -5.44140625 311.5234375 C2.55796036 312.89615215 10.29003256 315.06424457 18.06323242 317.35473633 C20.11961287 317.96050127 22.1777762 318.55986376 24.23632812 319.15820312 C29.78695487 320.77831438 35.3245633 322.41052186 40.796875 324.28125 C45.29078956 325.76522179 48.91011028 326.54546639 53.44140625 324.796875 C58.8388851 322.019093 60.73319826 319.0512112 62.55859375 313.4609375 C62.55859375 307.43125423 60.10654375 302.9166955 57.55859375 297.5234375 C56.89510204 296.07976295 56.23238684 294.63573136 55.5703125 293.19140625 C51.42450687 284.22966137 47.03047704 275.42063568 42.3605957 266.72045898 C38.70884284 259.90318155 35.26824518 252.98373092 31.82278442 246.06088257 C29.34478697 241.08712145 26.85694665 236.11827572 24.37109375 231.1484375 C23.24866101 228.90366429 22.12626574 226.65887234 21.00390625 224.4140625 C20.43704102 223.28033203 19.87017578 222.14660156 19.28613281 220.97851562 C17.56184896 217.52994792 15.8375651 214.08138021 14.11328125 210.6328125 C13.55342529 209.51314087 12.99356934 208.39346924 12.41674805 207.23986816 C11.3113116 205.0289145 10.20600363 202.81789661 9.10083008 200.60681152 C6.78374454 195.97139756 4.46587378 191.33640343 2.140625 186.70507812 C-1.46769955 179.51504513 -5.01594722 172.30281119 -8.44140625 165.0234375 C-14.7639654 151.68551477 -14.7639654 151.68551477 -21.44140625 138.5234375 C-22.00214844 137.44964844 -22.56289063 136.37585937 -23.140625 135.26953125 C-26.44803384 129.47963839 -29.58551464 125.80891344 -35.8203125 123.19921875 C-41.59165156 121.7112282 -46.34562424 122.5561535 -51.69140625 125.0234375 C-57.86885392 130.63929902 -61.54982013 138.32015026 -65.1015625 145.76953125 C-65.52455627 146.64195969 -65.94755005 147.51438812 -66.38336182 148.41325378 C-67.29081248 150.28621421 -68.19539146 152.16056826 -69.09732056 154.03619385 C-71.51620716 159.06583638 -73.95638952 164.08513955 -76.39453125 169.10546875 C-76.8937056 170.13460388 -77.39287994 171.16373901 -77.90718079 172.22406006 C-83.92259813 184.60724406 -90.10554501 196.90611628 -96.29907227 209.20092773 C-100.75389021 218.05874355 -105.11822097 226.948178 -109.30622864 235.93582153 C-111.82540139 241.31928882 -114.52329799 246.5897248 -117.31640625 251.8359375 C-117.77821289 252.70557129 -118.24001953 253.57520508 -118.71582031 254.47119141 C-119.08416992 255.16132324 -119.45251953 255.85145508 -119.83203125 256.5625 C-124.09337381 264.6099064 -128.10832328 272.7833168 -132.15722656 280.93896484 C-134.07779774 284.80420562 -136.00954876 288.66382897 -137.94140625 292.5234375 C-138.55605266 293.75257263 -139.17064019 294.9817372 -139.78515625 296.2109375 C-140.86680323 298.37423146 -141.98154213 300.52137909 -143.1328125 302.6484375 C-145.11084511 306.99420466 -145.13433634 310.84044842 -144.44140625 315.5234375 C-142.46004723 319.41539272 -140.33839667 322.46669256 -136.44140625 324.5234375 C-129.97908336 325.83288956 -125.48169034 325.11574968 -119.25390625 323.1484375 C-118.37839111 322.88530762 -117.50287598 322.62217773 -116.60083008 322.35107422 C-113.54215236 321.42576437 -110.49198203 320.475109 -107.44140625 319.5234375 C-105.5081179 318.92812161 -103.57482054 318.33283451 -101.64125061 317.73843384 C-93.90027102 315.35789829 -86.16848623 312.94873129 -78.44140625 310.5234375 C-78.11140625 311.1834375 -77.78140625 311.8434375 -77.44140625 312.5234375 C-78.19190979 314.53910828 -78.19190979 314.53910828 -79.43579102 317.0456543 C-79.89699844 317.98390549 -80.35820587 318.92215668 -80.83338928 319.88883972 C-81.60035378 321.4153289 -81.60035378 321.4153289 -82.3828125 322.97265625 C-82.90270248 324.0186348 -83.42259247 325.06461334 -83.95823669 326.14228821 C-85.06489935 328.3627358 -86.17571101 330.58111953 -87.2902832 332.79760742 C-88.98488316 336.17304581 -90.66022518 339.55754834 -92.33398438 342.94335938 C-93.41159836 345.09953949 -94.49033943 347.25515677 -95.5703125 349.41015625 C-96.06745255 350.41769455 -96.56459259 351.42523285 -97.07679749 352.46330261 C-104.02802267 366.18548103 -112.39445804 372.04760227 -126.859375 376.79296875 C-127.77769104 377.09628616 -128.69600708 377.39960358 -129.64215088 377.71211243 C-139.2304074 380.84089113 -148.91197731 383.62032749 -158.62060547 386.34796143 C-163.98569132 387.85569216 -169.34599495 389.38028957 -174.70703125 390.90234375 C-175.78658081 391.20839539 -176.86613037 391.51444702 -177.97839355 391.82977295 C-188.14847891 394.71594057 -198.29817413 397.6694554 -208.44140625 400.6484375 C-209.2653891 400.89027771 -210.08937195 401.13211792 -210.93832397 401.38128662 C-215.08270223 402.59778834 -219.22675378 403.81539733 -223.37060547 405.03369141 C-228.66528464 406.58987474 -233.96139427 408.14115345 -239.2578125 409.69140625 C-240.15357498 409.9536348 -241.04933746 410.21586334 -241.97224426 410.48603821 C-246.37377012 411.77432305 -250.77560959 413.0615228 -255.17797852 414.34692383 C-262.55056138 416.50038046 -269.92043711 418.66069012 -277.27734375 420.8671875 C-278.41357178 421.20580811 -279.5497998 421.54442871 -280.72045898 421.89331055 C-282.75564073 422.50070304 -284.78915679 423.11371916 -286.82055664 423.73364258 C-288.1159436 424.11879028 -288.1159436 424.11879028 -289.4375 424.51171875 C-290.17154053 424.73384033 -290.90558105 424.95596191 -291.66186523 425.18481445 C-293.44140625 425.5234375 -293.44140625 425.5234375 -295.44140625 424.5234375 C-294.79461914 423.19227905 -294.79461914 423.19227905 -294.13476562 421.83422852 C-293.51822598 420.56526847 -292.90168984 419.29630673 -292.28515625 418.02734375 C-291.95138977 417.34039429 -291.61762329 416.65344482 -291.27374268 415.94567871 C-289.38798626 412.06423826 -287.50270518 408.18256778 -285.61816406 404.30053711 C-284.82488023 402.66649884 -284.03158585 401.03246569 -283.23828125 399.3984375 C-282.83748352 398.57287857 -282.43668579 397.74731964 -282.02374268 396.89674377 C-279.76355242 392.24238583 -277.50001526 387.58968309 -275.23234558 382.93896484 C-268.06399148 368.23591795 -261.00513174 353.4983423 -254.16748047 338.63818359 C-250.01177733 329.6498477 -245.63010801 320.78908767 -241.1706543 311.94824219 C-237.26174238 304.19286668 -233.46775655 296.39080644 -229.74121094 288.54638672 C-227.14328551 283.07956946 -224.52581806 277.62296023 -221.87890625 272.1796875 C-215.74959622 259.57080407 -209.67564743 246.94830206 -203.81640625 234.2109375 C-199.16313262 224.09793649 -194.28284144 214.12485932 -189.2565918 204.19262695 C-184.83249683 195.40942826 -180.69383321 186.5117353 -176.60693359 177.56762695 C-173.71070692 171.23988627 -170.73362847 164.97511263 -167.58203125 158.77124023 C-159.63016751 143.07964326 -152.1952782 127.11938838 -144.61499023 111.24584961 C-142.12386564 106.03171021 -139.62353588 100.82214716 -137.11328125 95.6171875 C-136.54416016 94.43705078 -135.97503906 93.25691406 -135.38867188 92.04101562 C-134.29968426 89.78409192 -133.20990991 87.52754755 -132.11914062 85.27148438 C-127.40089068 75.4932561 -122.80018296 65.66157123 -118.26806641 55.79589844 C-116.30756865 51.52945275 -114.33044604 47.27098812 -112.3449707 43.01611328 C-111.53384183 41.27009366 -110.72850051 39.52137377 -109.92895508 37.77001953 C-100.97886376 18.18975446 -89.55969799 -0.11548407 -68.43896484 -8.24755859 C-44.88980363 -16.51128229 -20.50857421 -15.19972015 0 0 Z M-64.44140625 -0.4765625 C-65.31925781 -0.11433594 -66.19710937 0.24789063 -67.1015625 0.62109375 C-84.83197723 8.70528594 -93.98785758 23.42441387 -101.87890625 40.3359375 C-102.62310393 41.90135126 -103.36847705 43.46620672 -104.11499023 45.03051758 C-108.5355666 54.32489111 -112.88793992 63.65678662 -117.04663086 73.0715332 C-119.59846936 78.8233638 -122.37784366 84.4498375 -125.2053833 90.06973267 C-129.29671426 98.20522583 -133.27563132 106.39471769 -137.25390625 114.5859375 C-137.64835938 115.39757355 -138.0428125 116.20920959 -138.44921875 117.04544067 C-146.22011159 133.03667694 -153.91762237 149.06070911 -161.51171875 165.13671875 C-163.02960432 168.34912082 -164.54785539 171.56134987 -166.06640625 174.7734375 C-166.44934845 175.58353271 -166.83229065 176.39362793 -167.22683716 177.22827148 C-173.91750639 191.374749 -180.7250824 205.46184845 -187.57910156 219.52975464 C-187.9190918 220.22763092 -188.25908203 220.9255072 -188.609375 221.64453125 C-189.10920898 222.67043869 -189.10920898 222.67043869 -189.61914062 223.71707153 C-192.94030052 230.53883242 -196.21640482 237.38179935 -199.48217773 244.23022461 C-203.50519568 252.66612626 -207.56129026 261.08592601 -211.61962891 269.50488281 C-214.52583556 275.53643865 -217.42159759 281.57269013 -220.30078125 287.6171875 C-226.19381996 299.98529343 -232.19657832 312.29895388 -238.20425415 324.6116333 C-243.34408026 335.14705915 -248.46163752 345.69170274 -253.50512695 356.27368164 C-257.19346328 364.01223692 -260.90548776 371.73921727 -264.62890625 379.4609375 C-264.92844208 380.08257782 -265.22797791 380.70421814 -265.53659058 381.34469604 C-269.37912165 389.31584138 -273.2502249 397.27082369 -277.30932617 405.13452148 C-278.94086334 408.17287441 -278.94086334 408.17287441 -279.44140625 411.5234375 C-274.05795243 410.95416645 -269.0127229 410.01227243 -263.8125 408.484375 C-263.10939194 408.2828331 -262.40628387 408.0812912 -261.68186951 407.87364197 C-259.41243649 407.22123166 -257.14566576 406.56007089 -254.87890625 405.8984375 C-253.29648781 405.4413003 -251.71396734 404.98451615 -250.13134766 404.52807617 C-240.59493208 401.76997721 -231.08672894 398.92651282 -221.60131836 395.99755859 C-213.69865747 393.5685001 -205.74288589 391.35134093 -197.77490234 389.14770508 C-189.84458277 386.94388121 -181.97340932 384.57842103 -174.10986328 382.1484375 C-167.04534521 379.97809353 -159.94218592 377.981934 -152.81640625 376.0234375 C-127.05817182 370.34686709 -127.05817182 370.34686709 -107.50390625 354.3984375 C-102.29833555 344.94312123 -96.85893903 334.77603583 -93.44140625 324.5234375 C-99.93474996 326.00096481 -106.21887156 327.75504281 -112.5246582 329.8828125 C-122.08037307 333.07463769 -130.4276324 335.68030396 -140.25390625 331.9609375 C-146.41481897 328.84735795 -150.29652279 324.04388323 -152.44140625 317.5234375 C-154.21941967 306.37441894 -150.85665163 299.06978586 -145.60888672 289.68457031 C-143.58750118 285.94276673 -141.8471962 282.07135534 -140.06640625 278.2109375 C-136.64818046 270.90267448 -132.97502454 263.76361408 -129.17236328 256.64916992 C-126.26543611 251.17773699 -123.55570455 245.64002184 -120.94140625 240.0234375 C-117.94695889 233.59013716 -114.78639494 227.2816166 -111.44140625 221.0234375 C-107.69675552 214.01323744 -104.17581693 206.93076057 -100.8359375 199.71875 C-97.20603573 191.903785 -93.31251801 184.22067924 -89.44140625 176.5234375 C-88.76991951 175.18681782 -88.09853104 173.85014877 -87.42724609 172.51342773 C-87.09901352 171.85982773 -86.77078094 171.20622772 -86.43260193 170.53282166 C-85.10666938 167.89187689 -83.78134996 165.25062512 -82.45651245 162.60913086 C-81.76683191 161.23453863 -81.07664877 159.86019847 -80.38601685 158.48608398 C-76.75097774 151.2503644 -73.15247861 144.01656046 -69.828125 136.63134766 C-65.74313361 127.559893 -61.68063097 120.45897134 -52.3359375 116.21484375 C-44.21284986 113.25033548 -36.53288705 113.79057901 -28.69140625 117.34375 C-16.03041856 123.98197619 -11.06075683 141.14981451 -4.94921875 153.41015625 C-4.03548555 155.23949359 -3.12157221 157.06874096 -2.20748901 158.89790344 C0.18807669 163.69282976 2.58124213 168.48895003 4.97387695 173.28533936 C7.38740212 178.12258229 9.80315687 182.95871139 12.21875 187.79492188 C15.77710395 194.9195551 19.33420847 202.04481012 22.89013672 209.1706543 C29.06116888 221.53579795 35.24021816 233.89679818 41.44503784 246.24502563 C43.97289701 251.27613341 46.49664716 256.30930061 49.02001762 261.3426609 C50.92727084 265.1466496 52.83605598 268.94985495 54.74804688 272.75146484 C56.62166337 276.47694509 58.49134636 280.20437518 60.35834122 283.93317795 C61.06420138 285.34122296 61.77146171 286.74856703 62.48019028 288.15517044 C63.46694644 290.11412356 64.44863344 292.07554024 65.42919922 294.03759766 C65.98686981 295.14849762 66.54454041 296.25939758 67.11911011 297.40396118 C70.5914145 304.92872283 71.73002009 311.24537108 69.30859375 319.2109375 C66.70295289 326.14741523 63.05656246 329.11055415 56.6796875 332.60546875 C46.92454291 335.47462892 37.98347633 332.55711593 28.62109375 329.5234375 C26.23846021 328.76874566 23.85440051 328.01853749 21.46875 327.2734375 C20.42855713 326.93828125 19.38836426 326.603125 18.31665039 326.2578125 C15.39006479 325.35190377 15.39006479 325.35190377 11.55859375 325.5234375 C15.51491323 338.34110519 22.49020871 356.5179585 34.48071289 363.66992188 C41.93141599 367.54748189 49.71814934 369.93047016 57.74609375 372.2734375 C59.21130733 372.70828728 60.67631006 373.14384805 62.14111328 373.58007812 C65.8898068 374.69347868 69.64189223 375.79488629 73.39556885 376.89135742 C75.44961083 377.49159047 77.50299885 378.0940014 79.55615234 378.69726562 C91.39559186 382.17190017 103.25125379 385.58793278 115.12109375 388.95703125 C118.05869045 389.79132664 120.99617477 390.62601661 123.93359375 391.4609375 C124.6612796 391.66763062 125.38896545 391.87432373 126.13870239 392.08728027 C137.78069585 395.39803817 149.3695189 398.86480928 160.94277954 402.40762329 C172.75184687 406.01972765 184.61546168 409.38118029 196.55859375 412.5234375 C195.94577922 408.546922 194.69292162 405.46461785 192.85546875 401.89453125 C192.01375122 400.24118774 192.01375122 400.24118774 191.1550293 398.55444336 C190.85478851 397.97048798 190.55454773 397.38653259 190.24520874 396.78488159 C188.62663228 393.63290024 187.03084949 390.46948044 185.4375 387.3046875 C184.94567986 386.32791298 184.94567986 386.32791298 184.44392395 385.33140564 C181.23964906 378.938073 178.22661915 372.46133045 175.24609375 365.9609375 C169.6357729 353.74522494 163.8101431 341.64370897 157.90893555 329.56616211 C157.23738058 328.19128592 156.56591318 326.81636695 155.89453125 325.44140625 C155.55475754 324.74569519 155.21498383 324.04998413 154.86491394 323.33319092 C151.95883085 317.37066749 149.10078641 311.38569934 146.24609375 305.3984375 C141.12368976 294.66125772 135.89479845 283.97848192 130.64312744 273.30407715 C123.33981167 258.45189441 116.10138527 243.58499023 109.20092773 228.54101562 C102.93280819 214.9099354 96.30805508 201.45110689 89.72705078 187.96923828 C86.2007966 180.74302184 82.69179422 173.50843132 79.18359375 166.2734375 C78.67907684 165.23333023 78.67907684 165.23333023 78.16436768 164.17221069 C73.69535133 154.9576507 69.25487946 145.7301714 64.85229492 136.48364258 C62.08218165 130.67693062 59.27904509 124.88707742 56.45703125 119.10546875 C49.75035452 105.36036617 43.05976606 91.62831992 36.80126953 77.67138672 C34.31291995 72.13568732 31.71435648 66.68015407 28.94482422 61.27978516 C26.88299721 57.23803796 24.90856912 53.1631237 22.98774719 49.05220032 C21.69947969 46.29650172 20.39965579 43.54629963 19.10018921 40.79586792 C18.45811369 39.4286031 17.82138022 38.0588141 17.19058228 36.68630981 C8.50132904 17.79707038 -3.55734553 5.50358741 -22.9453125 -2.51171875 C-36.03051465 -6.91440805 -51.88015021 -5.79026998 -64.44140625 -0.4765625 Z " fill="#FEFEFE" transform="translate(509.44140625,1329.4765625)"/>
<path d="M0 0 C9.15437418 9.02127342 13.54190184 19.56975212 13.68902588 32.35722351 C13.68538761 33.82901698 13.67291603 35.30081367 13.65185547 36.77246094 C13.62501839 38.99847468 13.65173971 41.21945006 13.68359375 43.4453125 C13.71515358 56.4317323 10.32279885 67.58941585 1 77 C-18.69107134 93.69657662 -40.69363952 96.66315472 -65.703125 94.7109375 C-77.91857808 93.0451939 -89.08211306 88.22035092 -99 81 C-99.66773438 80.51660156 -100.33546875 80.03320312 -101.0234375 79.53515625 C-108.87492722 73.34653662 -113.5872681 64.59778372 -116 55 C-116.5034666 50.22644771 -116.61927568 45.52670944 -116.57641602 40.73022461 C-116.56253488 38.56793332 -116.59675098 36.40997637 -116.63476562 34.24804688 C-116.70081653 22.34134934 -113.82185578 12.37074706 -106.07421875 3.09375 C-78.92424226 -24.31187599 -28.97298197 -24.02263141 0 0 Z " fill="#FDFDFD" transform="translate(1414,1523)"/>
<path d="M0 0 C7.4041132 7.23957735 13.0420762 15.82076977 13.30628967 26.33390808 C13.30962814 27.1350856 13.31296661 27.93626312 13.31640625 28.76171875 C13.32639145 29.61119583 13.33637665 30.46067291 13.34666443 31.33589172 C13.36178474 33.12679207 13.36889212 34.91777613 13.3684082 36.70874023 C13.3749418 39.41340816 13.42940408 42.11434412 13.48632812 44.81835938 C13.61049696 57.62834572 11.64603608 67.44574654 2.5625 77.16796875 C-1.07645798 80.45765175 -5.03151707 83.15796267 -9.1875 85.75 C-10.27611328 86.430625 -10.27611328 86.430625 -11.38671875 87.125 C-29.31777188 97.13885166 -53.51349186 99.11563858 -73.1875 93.75 C-88.56881367 89.27543602 -102.5440159 81.63440006 -110.86328125 67.5703125 C-114.94708361 58.87265673 -115.68961404 51.03500605 -115.63354492 41.52124023 C-115.62502844 39.31985008 -115.65388116 37.12105751 -115.68554688 34.91992188 C-115.72601576 26.84261795 -115.09395243 19.99623656 -111.1875 12.75 C-110.48367188 11.41388672 -110.48367188 11.41388672 -109.765625 10.05078125 C-100.45926368 -3.88138908 -86.08022783 -11.13183399 -70.0703125 -15.00390625 C-44.86628648 -19.58937154 -20.95357726 -14.79076042 0 0 Z " fill="#FDFDFE" transform="translate(968.1875,1522.25)"/>
<path d="M0 0 C1.08410156 0.35191406 2.16820312 0.70382812 3.28515625 1.06640625 C17.80313883 6.21137551 29.49996568 14.07000957 36.6295929 27.96968079 C39.9297916 35.08736711 39.95470967 42.10796968 39.74780273 49.83276367 C39.6872642 52.19670781 39.68627018 54.55530701 39.69335938 56.91992188 C39.60384449 70.66500049 36.64316428 80.83678537 27.10546875 91.0234375 C11.61343215 106.02685699 -9.36647558 109.38121592 -30.015625 109.1484375 C-47.59843544 108.74431111 -64.79567951 102.90759068 -77.875 90.8125 C-87.91246635 80.19103561 -89.28884908 68.92716709 -89.45996094 55.08642578 C-89.48636735 53.4630755 -89.5270674 51.83988619 -89.58300781 50.21728516 C-90.05167543 36.42547 -87.84407448 26.13423871 -78.25 15.5625 C-57.8801009 -2.77040919 -25.96284322 -8.58532266 0 0 Z " fill="#FEFEFE" transform="translate(1163,1509)"/>
<path d="M0 0 C7.35195173 7.18857503 13.0775601 15.76947166 13.25498962 26.23274231 C13.25205399 27.01832016 13.24911835 27.80389801 13.24609375 28.61328125 C13.2513356 29.44530563 13.25657745 30.27733002 13.26197815 31.13456726 C13.26837087 32.88681936 13.26709717 34.63911453 13.25854492 36.39135742 C13.25005629 39.04490305 13.27879844 41.69627698 13.31054688 44.34960938 C13.3710216 58.54237605 11.03289066 68.28291026 0.8125 78.75 C-2.35231653 81.40803219 -5.64177307 83.63233767 -9.1875 85.75 C-9.95707031 86.21148438 -10.72664063 86.67296875 -11.51953125 87.1484375 C-30.56413997 97.57086018 -56.03899877 98.72734276 -76.6328125 92.75 C-90.70735975 88.12941429 -103.21739994 80.49601444 -110.86328125 67.5703125 C-114.92377622 58.92229666 -115.7181019 51.0932239 -115.68847656 41.63110352 C-115.68750614 39.45128286 -115.72918749 37.27501623 -115.7734375 35.09570312 C-115.87561365 23.1322536 -113.05669837 13.15937732 -105.25390625 3.83984375 C-77.28537585 -24.44591006 -30.59265646 -21.59481633 0 0 Z " fill="#FEFDFE" transform="translate(1635.1875,1522.25)"/>
<path d="M0 0 C11.66140281 10.25074925 18.67127889 22.80318944 20.5625 38.1875 C20.82928179 43.00404877 20.84265866 47.80212783 20.8125 52.625 C20.82023437 53.85798828 20.82796875 55.09097656 20.8359375 56.36132812 C20.79739007 74.60389751 16.69177179 89.88287901 3.5625 103.1875 C-15.92978753 120.77033896 -41.327328 127.21636104 -67.17480469 126.32373047 C-89.1569968 125.00024501 -110.61894594 116.66611379 -126.4375 101.1875 C-138.57062501 87.26060734 -141.81253472 72.91683035 -141.75317383 54.82714844 C-141.75001451 52.82171109 -141.77356621 50.81775639 -141.79882812 48.8125 C-141.8070097 32.22027226 -138.04757348 17.32327274 -126.35546875 5.01171875 C-92.85087438 -26.85517651 -36.12927331 -28.52311051 0 0 Z M-114.515625 16.625 C-123.54252028 26.58435419 -125.53166044 37.08912686 -125.18530273 50.02026367 C-125.1247642 52.38420781 -125.12377018 54.74280701 -125.13085938 57.10742188 C-125.04121145 70.87292774 -122.03896798 80.90238822 -112.61328125 91.17578125 C-97.794768 105.71203711 -77.89568085 109.44777861 -57.95996094 109.36376953 C-39.16289047 109.13875856 -21.2170967 103.31823485 -7.125 90.5 C2.68905245 80.18110946 3.85633745 68.71117252 4.02246094 55.27392578 C4.04886735 53.6505755 4.0895674 52.02738619 4.14550781 50.40478516 C4.62569643 36.27393338 2.17384305 26.1964856 -7.5 15.3125 C-15.86383656 7.66108563 -26.58840418 2.2825874 -37.4375 -0.8125 C-38.21351562 -1.03679687 -38.98953125 -1.26109375 -39.7890625 -1.4921875 C-66.357778 -7.64938189 -94.07656949 -0.99098154 -114.515625 16.625 Z " fill="#1B0F2F" transform="translate(1198.4375,1508.8125)"/>
<path d="M0 0 C1.53492784 1.31708327 3.05712845 2.64923418 4.5625 4 C5.49642578 4.77730469 5.49642578 4.77730469 6.44921875 5.5703125 C15.34370824 13.525384 21.7114975 26.14529045 22.73809814 38.03344727 C23.00235164 42.8056403 23.03316656 47.57261805 23.00854492 52.35107422 C23.00003795 54.86379127 23.02887679 57.374225 23.06054688 59.88671875 C23.1384455 77.70704532 18.36564201 91.48496626 6.03125 104.62109375 C-11.66237558 121.67080574 -35.73235578 128.39262826 -59.828125 128.3046875 C-81.96526132 127.78615998 -103.79768436 120.9308616 -120.4375 106 C-121.06011719 105.48179688 -121.68273438 104.96359375 -122.32421875 104.4296875 C-131.21742103 96.47576726 -137.64940513 83.80521369 -138.60595703 71.90411377 C-138.8509296 66.95521712 -138.86487827 62.0107754 -138.82861328 57.05688477 C-138.81250977 54.43908759 -138.82853964 51.82282895 -138.84765625 49.20507812 C-138.85881093 40.75334445 -138.85075653 32.89379406 -135.4375 25 C-135.01210937 23.9996875 -134.58671875 22.999375 -134.1484375 21.96875 C-124.13193779 3.45872714 -107.17682988 -8.34874262 -87.3125 -14.375 C-58.18355867 -21.81357711 -24.37115133 -19.08272244 0 0 Z M-95.4375 7 C-96.29859375 7.46535156 -97.1596875 7.93070313 -98.046875 8.41015625 C-107.66517855 13.87510145 -114.54750439 19.94593822 -119.4375 30 C-119.97890625 31.08796875 -120.5203125 32.1759375 -121.078125 33.296875 C-123.25951779 39.31069212 -122.92065414 45.78352 -122.88354492 52.09838867 C-122.87505722 54.2976727 -122.9038195 56.49433225 -122.93554688 58.69335938 C-123.00183561 71.91842817 -119.89111357 83.01159801 -110.6953125 92.8671875 C-94.4376166 108.0455343 -74.35103444 111.56133054 -52.953125 111.28515625 C-44.85235112 111.00313141 -37.18954574 109.27965136 -29.4375 107 C-28.48617188 106.72285156 -27.53484375 106.44570312 -26.5546875 106.16015625 C-13.61402684 101.64548846 -2.28034011 92.20510405 3.73828125 79.89453125 C6.53252337 72.60546816 6.23286858 64.94231582 6.19384766 57.2421875 C6.18752744 54.63631536 6.2345438 52.03500035 6.28515625 49.4296875 C6.37817898 37.0103384 4.10324614 26.94922457 -4.69921875 17.578125 C-21.61880559 2.21742144 -42.87516431 -1.81862249 -64.94482422 -1.13623047 C-75.7592873 -0.54519517 -85.91116071 1.71258212 -95.4375 7 Z " fill="#1B102F" transform="translate(1642.4375,1507)"/>
<path d="M0 0 C10.63173576 9.04828576 19.0056537 20.85543154 21.2578125 34.875 C21.38606286 37.66431275 21.46913842 40.42862525 21.49609375 43.21875 C21.5041655 44.02429321 21.51223724 44.82983643 21.52055359 45.65979004 C21.53435189 47.36431761 21.54509297 49.06887232 21.55297852 50.7734375 C21.56443963 52.49357365 21.58479727 54.21367591 21.61450195 55.93359375 C21.94503243 75.10805466 17.97053824 89.27834812 4.54296875 103.625 C1.33675961 106.78188285 -1.99036448 109.40220755 -5.7421875 111.875 C-6.4434375 112.36484375 -7.1446875 112.8546875 -7.8671875 113.359375 C-29.30091955 127.40715884 -57.00316553 129.55572727 -81.58984375 124.78125 C-96.60667446 121.620529 -110.29841108 115.14346966 -121.7421875 104.875 C-122.36480469 104.35679688 -122.98742187 103.83859375 -123.62890625 103.3046875 C-132.05887802 95.7650723 -138.99115745 83.16015319 -139.91064453 71.79232788 C-140.15893966 66.72196127 -140.1692896 61.65542461 -140.13330078 56.58007812 C-140.11722322 53.88099622 -140.13320513 51.18341133 -140.15234375 48.484375 C-140.17382215 31.72812443 -140.17382215 31.72812443 -136.7421875 23.875 C-136.31679688 22.8746875 -135.89140625 21.874375 -135.453125 20.84375 C-125.43662529 2.33372714 -108.48151738 -9.47374262 -88.6171875 -15.5 C-58.20894355 -23.27405332 -25.21064978 -19.53645795 0 0 Z M-113.90234375 18.171875 C-122.47182503 28.7245271 -123.9479478 37.46157349 -123.98242188 50.78149414 C-123.99208113 53.03765389 -124.02310477 55.29288369 -124.0546875 57.54882812 C-124.11062467 65.06550187 -124.02618706 71.95025688 -120.7421875 78.875 C-120.10410156 80.25365234 -120.10410156 80.25365234 -119.453125 81.66015625 C-111.16672644 95.78580059 -97.59519495 102.94100191 -82.48046875 107.9296875 C-61.58564119 113.213437 -37.40669293 111.00982606 -18.44921875 100.58984375 C-8.02463595 93.98610371 0.35043543 85.8666055 4.2578125 73.875 C4.58851052 70.93789021 4.63312372 68.01242287 4.6640625 65.05859375 C4.67546265 64.20628677 4.68686279 63.3539798 4.6986084 62.47584534 C4.71746175 60.67299319 4.73055784 58.87007285 4.73828125 57.06713867 C4.75758263 54.34492064 4.81960787 51.62579953 4.8828125 48.90429688 C5.00956835 38.3733554 4.32038586 30.81236538 -1.7421875 21.875 C-2.4640625 20.8025 -3.1859375 19.73 -3.9296875 18.625 C-19.73913336 3.16687516 -39.61824522 -2.40113458 -61.17260742 -2.37158203 C-80.95532539 -2.09463536 -99.93678577 3.32242094 -113.90234375 18.171875 Z " fill="#1B0F2F" transform="translate(976.7421875,1508.125)"/>
<path d="M0 0 C1.53492784 1.31708327 3.05712845 2.64923418 4.5625 4 C5.49642578 4.77730469 5.49642578 4.77730469 6.44921875 5.5703125 C15.34370824 13.525384 21.7114975 26.14529045 22.73809814 38.03344727 C23.00235164 42.8056403 23.03316656 47.57261805 23.00854492 52.35107422 C23.00003795 54.86379127 23.02887679 57.374225 23.06054688 59.88671875 C23.13580432 76.93284538 18.9408955 91.48191661 7 104.1875 C-11.72675403 121.81101626 -36.44705077 128.57742345 -61.78515625 128.21875 C-83.23586891 127.49421675 -104.35184992 120.43361034 -120.4375 106 C-121.06011719 105.48179688 -121.68273438 104.96359375 -122.32421875 104.4296875 C-131.21870824 96.474616 -137.5864975 83.85470955 -138.61309814 71.96655273 C-138.87735164 67.1943597 -138.90816656 62.42738195 -138.88354492 57.64892578 C-138.87503795 55.13620873 -138.90387679 52.625775 -138.93554688 50.11328125 C-139.01122704 32.97140782 -134.77572341 18.38972841 -122.6875 5.6875 C-117.71263599 0.9839922 -112.39095944 -2.64848665 -106.4375 -6 C-105.66019531 -6.44988281 -104.88289063 -6.89976563 -104.08203125 -7.36328125 C-72.82173837 -24.27630403 -28.26766257 -22.13370848 0 0 Z M-95.4375 7 C-96.31019531 7.47695312 -97.18289063 7.95390625 -98.08203125 8.4453125 C-109.2873149 14.86273132 -117.387674 22.92492241 -121.85302734 35.3984375 C-123.08223349 40.86979116 -122.91635048 46.51587286 -122.88354492 52.09838867 C-122.87505722 54.2976727 -122.9038195 56.49433225 -122.93554688 58.69335938 C-123.00546924 72.90585787 -119.21480117 83.45750409 -109.4375 94 C-90.39442637 109.56675415 -68.39859936 112.80339823 -44.4375 111 C-28.20510802 108.57805232 -11.63858287 101.14452148 -1.125 88.25 C5.467437 78.33862936 7.38179103 68.92742121 7.21435547 57.22753906 C7.18751839 55.00152532 7.21423971 52.78054994 7.24609375 50.5546875 C7.28035508 36.81093026 3.36686889 25.89022151 -6.4375 16 C-29.64709069 -3.44895325 -68.67045715 -7.8752483 -95.4375 7 Z " fill="#1B0F2F" transform="translate(1420.4375,1507)"/>
</svg>
